<svg width="259" height="123" viewBox="0 0 259 123" fill="none" xmlns="http://www.w3.org/2000/svg">
<g filter="url(#filter0_d_2_18)">
<path d="M25.78 10.18C25.084 8.716 24.076 7.588 22.756 6.796C21.436 5.98 19.9 5.572 18.148 5.572C16.396 5.572 14.812 5.98 13.396 6.796C12.004 7.588 10.9 8.74 10.084 10.252C9.292 11.74 8.896 13.468 8.896 15.436C8.896 17.404 9.292 19.132 10.084 20.62C10.9 22.108 12.004 23.26 13.396 24.076C14.812 24.868 16.396 25.264 18.148 25.264C20.596 25.264 22.612 24.532 24.196 23.068C25.78 21.604 26.704 19.624 26.968 17.128H16.96V14.464H30.46V16.984C30.268 19.048 29.62 20.944 28.516 22.672C27.412 24.376 25.96 25.732 24.16 26.74C22.36 27.724 20.356 28.216 18.148 28.216C15.82 28.216 13.696 27.676 11.776 26.596C9.856 25.492 8.332 23.968 7.204 22.024C6.1 20.08 5.548 17.884 5.548 15.436C5.548 12.988 6.1 10.792 7.204 8.848C8.332 6.88 9.856 5.356 11.776 4.276C13.696 3.172 15.82 2.62 18.148 2.62C20.812 2.62 23.164 3.28 25.204 4.6C27.268 5.92 28.768 7.78 29.704 10.18H25.78ZM55.6715 17.38C55.6715 18.004 55.6355 18.664 55.5635 19.36H39.7955C39.9155 21.304 40.5755 22.828 41.7755 23.932C42.9995 25.012 44.4755 25.552 46.2035 25.552C47.6195 25.552 48.7955 25.228 49.7315 24.58C50.6915 23.908 51.3635 23.02 51.7475 21.916H55.2755C54.7475 23.812 53.6915 25.36 52.1075 26.56C50.5235 27.736 48.5555 28.324 46.2035 28.324C44.3315 28.324 42.6515 27.904 41.1635 27.064C39.6995 26.224 38.5475 25.036 37.7075 23.5C36.8675 21.94 36.4475 20.14 36.4475 18.1C36.4475 16.06 36.8555 14.272 37.6715 12.736C38.4875 11.2 39.6275 10.024 41.0915 9.208C42.5795 8.368 44.2835 7.948 46.2035 7.948C48.0755 7.948 49.7315 8.356 51.1715 9.172C52.6115 9.988 53.7155 11.116 54.4835 12.556C55.2755 13.972 55.6715 15.58 55.6715 17.38ZM52.2875 16.696C52.2875 15.448 52.0115 14.38 51.4595 13.492C50.9075 12.58 50.1515 11.896 49.1915 11.44C48.2555 10.96 47.2115 10.72 46.0595 10.72C44.4035 10.72 42.9875 11.248 41.8115 12.304C40.6595 13.36 39.9995 14.824 39.8315 16.696H52.2875ZM66.8718 10.972V22.6C66.8718 23.56 67.0758 24.244 67.4838 24.652C67.8918 25.036 68.5998 25.228 69.6078 25.228H72.0198V28H69.0678C67.2438 28 65.8758 27.58 64.9638 26.74C64.0518 25.9 63.5958 24.52 63.5958 22.6V10.972H61.0398V8.272H63.5958V3.304H66.8718V8.272H72.0198V10.972H66.8718ZM82.865 10.972V22.6C82.865 23.56 83.069 24.244 83.477 24.652C83.885 25.036 84.593 25.228 85.601 25.228H88.013V28H85.061C83.237 28 81.869 27.58 80.957 26.74C80.045 25.9 79.589 24.52 79.589 22.6V10.972H77.033V8.272H79.589V3.304H82.865V8.272H88.013V10.972H82.865ZM96.5543 5.068C95.9303 5.068 95.4023 4.852 94.9703 4.42C94.5383 3.988 94.3223 3.46 94.3223 2.836C94.3223 2.212 94.5383 1.684 94.9703 1.252C95.4023 0.819999 95.9303 0.603999 96.5543 0.603999C97.1543 0.603999 97.6583 0.819999 98.0663 1.252C98.4983 1.684 98.7143 2.212 98.7143 2.836C98.7143 3.46 98.4983 3.988 98.0663 4.42C97.6583 4.852 97.1543 5.068 96.5543 5.068ZM98.1383 8.272V28H94.8623V8.272H98.1383ZM116.214 7.912C118.614 7.912 120.558 8.644 122.046 10.108C123.534 11.548 124.278 13.636 124.278 16.372V28H121.038V16.84C121.038 14.872 120.546 13.372 119.562 12.34C118.578 11.284 117.234 10.756 115.53 10.756C113.802 10.756 112.422 11.296 111.39 12.376C110.382 13.456 109.878 15.028 109.878 17.092V28H106.602V8.272H109.878V11.08C110.526 10.072 111.402 9.292 112.506 8.74C113.634 8.188 114.87 7.912 116.214 7.912ZM140.645 7.948C142.349 7.948 143.837 8.32 145.109 9.064C146.405 9.808 147.365 10.744 147.989 11.872V8.272H151.301V28.432C151.301 30.232 150.917 31.828 150.149 33.22C149.381 34.636 148.277 35.74 146.837 36.532C145.421 37.324 143.765 37.72 141.869 37.72C139.277 37.72 137.117 37.108 135.389 35.884C133.661 34.66 132.641 32.992 132.329 30.88H135.569C135.929 32.08 136.673 33.04 137.801 33.76C138.929 34.504 140.285 34.876 141.869 34.876C143.669 34.876 145.133 34.312 146.261 33.184C147.413 32.056 147.989 30.472 147.989 28.432V24.292C147.341 25.444 146.381 26.404 145.109 27.172C143.837 27.94 142.349 28.324 140.645 28.324C138.893 28.324 137.297 27.892 135.857 27.028C134.441 26.164 133.325 24.952 132.509 23.392C131.693 21.832 131.285 20.056 131.285 18.064C131.285 16.048 131.693 14.284 132.509 12.772C133.325 11.236 134.441 10.048 135.857 9.208C137.297 8.368 138.893 7.948 140.645 7.948ZM147.989 18.1C147.989 16.612 147.689 15.316 147.089 14.212C146.489 13.108 145.673 12.268 144.641 11.692C143.633 11.092 142.517 10.792 141.293 10.792C140.069 10.792 138.953 11.08 137.945 11.656C136.937 12.232 136.133 13.072 135.533 14.176C134.933 15.28 134.633 16.576 134.633 18.064C134.633 19.576 134.933 20.896 135.533 22.024C136.133 23.128 136.937 23.98 137.945 24.58C138.953 25.156 140.069 25.444 141.293 25.444C142.517 25.444 143.633 25.156 144.641 24.58C145.673 23.98 146.489 23.128 147.089 22.024C147.689 20.896 147.989 19.588 147.989 18.1ZM14.728 71.252C13.072 71.252 11.584 70.964 10.264 70.388C8.968 69.788 7.948 68.972 7.204 67.94C6.46 66.884 6.076 65.672 6.052 64.304H9.544C9.664 65.48 10.144 66.476 10.984 67.292C11.848 68.084 13.096 68.48 14.728 68.48C16.288 68.48 17.512 68.096 18.4 67.328C19.312 66.536 19.768 65.528 19.768 64.304C19.768 63.344 19.504 62.564 18.976 61.964C18.448 61.364 17.788 60.908 16.996 60.596C16.204 60.284 15.136 59.948 13.792 59.588C12.136 59.156 10.804 58.724 9.796 58.292C8.812 57.86 7.96 57.188 7.24 56.276C6.544 55.34 6.196 54.092 6.196 52.532C6.196 51.164 6.544 49.952 7.24 48.896C7.936 47.84 8.908 47.024 10.156 46.448C11.428 45.872 12.88 45.584 14.512 45.584C16.864 45.584 18.784 46.172 20.272 47.348C21.784 48.524 22.636 50.084 22.828 52.028H19.228C19.108 51.068 18.604 50.228 17.716 49.508C16.828 48.764 15.652 48.392 14.188 48.392C12.82 48.392 11.704 48.752 10.84 49.472C9.976 50.168 9.544 51.152 9.544 52.424C9.544 53.336 9.796 54.08 10.3 54.656C10.828 55.232 11.464 55.676 12.208 55.988C12.976 56.276 14.044 56.612 15.412 56.996C17.068 57.452 18.4 57.908 19.408 58.364C20.416 58.796 21.28 59.48 22 60.416C22.72 61.328 23.08 62.576 23.08 64.16C23.08 65.384 22.756 66.536 22.108 67.616C21.46 68.696 20.5 69.572 19.228 70.244C17.956 70.916 16.456 71.252 14.728 71.252ZM34.7769 53.972V65.6C34.7769 66.56 34.9809 67.244 35.3889 67.652C35.7969 68.036 36.5049 68.228 37.5129 68.228H39.9249V71H36.9729C35.1489 71 33.7809 70.58 32.8689 69.74C31.9569 68.9 31.5009 67.52 31.5009 65.6V53.972H28.9449V51.272H31.5009V46.304H34.7769V51.272H39.9249V53.972H34.7769ZM45.5502 61.064C45.5502 59.048 45.9582 57.284 46.7742 55.772C47.5902 54.236 48.7062 53.048 50.1222 52.208C51.5622 51.368 53.1582 50.948 54.9102 50.948C56.6382 50.948 58.1382 51.32 59.4102 52.064C60.6822 52.808 61.6302 53.744 62.2542 54.872V51.272H65.5662V71H62.2542V67.328C61.6062 68.48 60.6342 69.44 59.3382 70.208C58.0662 70.952 56.5782 71.324 54.8742 71.324C53.1222 71.324 51.5382 70.892 50.1222 70.028C48.7062 69.164 47.5902 67.952 46.7742 66.392C45.9582 64.832 45.5502 63.056 45.5502 61.064ZM62.2542 61.1C62.2542 59.612 61.9542 58.316 61.3542 57.212C60.7542 56.108 59.9382 55.268 58.9062 54.692C57.8982 54.092 56.7822 53.792 55.5582 53.792C54.3342 53.792 53.2182 54.08 52.2102 54.656C51.2022 55.232 50.3982 56.072 49.7982 57.176C49.1982 58.28 48.8982 59.576 48.8982 61.064C48.8982 62.576 49.1982 63.896 49.7982 65.024C50.3982 66.128 51.2022 66.98 52.2102 67.58C53.2182 68.156 54.3342 68.444 55.5582 68.444C56.7822 68.444 57.8982 68.156 58.9062 67.58C59.9382 66.98 60.7542 66.128 61.3542 65.024C61.9542 63.896 62.2542 62.588 62.2542 61.1ZM77.2583 54.476C77.8343 53.348 78.6503 52.472 79.7063 51.848C80.7863 51.224 82.0943 50.912 83.6303 50.912V54.296H82.7663C79.0943 54.296 77.2583 56.288 77.2583 60.272V71H73.9823V51.272H77.2583V54.476ZM94.288 53.972V65.6C94.288 66.56 94.492 67.244 94.9 67.652C95.308 68.036 96.016 68.228 97.024 68.228H99.436V71H96.484C94.66 71 93.292 70.58 92.38 69.74C91.468 68.9 91.012 67.52 91.012 65.6V53.972H88.456V51.272H91.012V46.304H94.288V51.272H99.436V53.972H94.288ZM124.285 60.38C124.285 61.004 124.249 61.664 124.177 62.36H108.409C108.529 64.304 109.189 65.828 110.389 66.932C111.613 68.012 113.089 68.552 114.817 68.552C116.233 68.552 117.409 68.228 118.345 67.58C119.305 66.908 119.977 66.02 120.361 64.916H123.889C123.361 66.812 122.305 68.36 120.721 69.56C119.137 70.736 117.169 71.324 114.817 71.324C112.945 71.324 111.265 70.904 109.777 70.064C108.313 69.224 107.161 68.036 106.321 66.5C105.481 64.94 105.061 63.14 105.061 61.1C105.061 59.06 105.469 57.272 106.285 55.736C107.101 54.2 108.241 53.024 109.705 52.208C111.193 51.368 112.897 50.948 114.817 50.948C116.689 50.948 118.345 51.356 119.785 52.172C121.225 52.988 122.329 54.116 123.097 55.556C123.889 56.972 124.285 58.58 124.285 60.38ZM120.901 59.696C120.901 58.448 120.625 57.38 120.073 56.492C119.521 55.58 118.765 54.896 117.805 54.44C116.869 53.96 115.825 53.72 114.673 53.72C113.017 53.72 111.601 54.248 110.425 55.304C109.273 56.36 108.613 57.824 108.445 59.696H120.901ZM130.265 61.064C130.265 59.048 130.673 57.284 131.489 55.772C132.305 54.236 133.421 53.048 134.837 52.208C136.277 51.368 137.885 50.948 139.661 50.948C141.197 50.948 142.625 51.308 143.945 52.028C145.265 52.724 146.273 53.648 146.969 54.8V44.36H150.282V71H146.969V67.292C146.321 68.468 145.361 69.44 144.089 70.208C142.817 70.952 141.329 71.324 139.625 71.324C137.873 71.324 136.277 70.892 134.837 70.028C133.421 69.164 132.305 67.952 131.489 66.392C130.673 64.832 130.265 63.056 130.265 61.064ZM146.969 61.1C146.969 59.612 146.669 58.316 146.069 57.212C145.469 56.108 144.653 55.268 143.622 54.692C142.613 54.092 141.497 53.792 140.273 53.792C139.049 53.792 137.933 54.08 136.925 54.656C135.917 55.232 135.113 56.072 134.513 57.176C133.913 58.28 133.613 59.576 133.613 61.064C133.613 62.576 133.913 63.896 134.513 65.024C135.113 66.128 135.917 66.98 136.925 67.58C137.933 68.156 139.049 68.444 140.273 68.444C141.497 68.444 142.613 68.156 143.622 67.58C144.653 66.98 145.469 66.128 146.069 65.024C146.669 63.896 146.969 62.588 146.969 61.1ZM202.711 45.908L195.439 71H191.767L185.935 50.804L179.887 71L176.251 71.036L169.231 45.908H172.723L178.195 67.184L184.243 45.908H187.915L193.675 67.112L199.183 45.908H202.711ZM210.868 48.068C210.244 48.068 209.716 47.852 209.284 47.42C208.852 46.988 208.636 46.46 208.636 45.836C208.636 45.212 208.852 44.684 209.284 44.252C209.716 43.82 210.244 43.604 210.868 43.604C211.468 43.604 211.972 43.82 212.38 44.252C212.812 44.684 213.028 45.212 213.028 45.836C213.028 46.46 212.812 46.988 212.38 47.42C211.972 47.852 211.468 48.068 210.868 48.068ZM212.452 51.272V71H209.176V51.272H212.452ZM224.912 53.972V65.6C224.912 66.56 225.116 67.244 225.524 67.652C225.932 68.036 226.64 68.228 227.648 68.228H230.06V71H227.108C225.284 71 223.916 70.58 223.004 69.74C222.092 68.9 221.636 67.52 221.636 65.6V53.972H219.08V51.272H221.636V46.304H224.912V51.272H230.06V53.972H224.912ZM246.701 50.912C248.189 50.912 249.533 51.236 250.733 51.884C251.933 52.508 252.869 53.456 253.541 54.728C254.237 56 254.585 57.548 254.585 59.372V71H251.345V59.84C251.345 57.872 250.853 56.372 249.869 55.34C248.885 54.284 247.541 53.756 245.837 53.756C244.109 53.756 242.729 54.296 241.697 55.376C240.689 56.456 240.185 58.028 240.185 60.092V71H236.909V44.36H240.185V54.08C240.833 53.072 241.721 52.292 242.849 51.74C244.001 51.188 245.285 50.912 246.701 50.912ZM27.508 88.908L18.04 114H14.26L4.792 88.908H8.284L16.168 110.544L24.052 88.908H27.508ZM48.2721 114L42.2961 103.74H38.3361V114H35.0601V88.908H43.1601C45.0561 88.908 46.6521 89.232 47.9481 89.88C49.2681 90.528 50.2521 91.404 50.9001 92.508C51.5481 93.612 51.8721 94.872 51.8721 96.288C51.8721 98.016 51.3681 99.54 50.3601 100.86C49.3761 102.18 47.8881 103.056 45.8961 103.488L52.1961 114H48.2721ZM38.3361 101.112H43.1601C44.9361 101.112 46.2681 100.68 47.1561 99.816C48.0441 98.928 48.4881 97.752 48.4881 96.288C48.4881 94.8 48.0441 93.648 47.1561 92.832C46.2921 92.016 44.9601 91.608 43.1601 91.608H38.3361V101.112ZM73.2561 101.436C73.2561 98.988 73.8081 96.792 74.9121 94.848C76.0161 92.88 77.5161 91.344 79.4121 90.24C81.3321 89.136 83.4561 88.584 85.7841 88.584C88.5201 88.584 90.9081 89.244 92.9481 90.564C94.9881 91.884 96.4761 93.756 97.4121 96.18H93.4881C92.7921 94.668 91.7841 93.504 90.4641 92.688C89.1681 91.872 87.6081 91.464 85.7841 91.464C84.0321 91.464 82.4601 91.872 81.0681 92.688C79.6761 93.504 78.5841 94.668 77.7921 96.18C77.0001 97.668 76.6041 99.42 76.6041 101.436C76.6041 103.428 77.0001 105.18 77.7921 106.692C78.5841 108.18 79.6761 109.332 81.0681 110.148C82.4601 110.964 84.0321 111.372 85.7841 111.372C87.6081 111.372 89.1681 110.976 90.4641 110.184C91.7841 109.368 92.7921 108.204 93.4881 106.692H97.4121C96.4761 109.092 94.9881 110.952 92.9481 112.272C90.9081 113.568 88.5201 114.216 85.7841 114.216C83.4561 114.216 81.3321 113.676 79.4121 112.596C77.5161 111.492 76.0161 109.968 74.9121 108.024C73.8081 106.08 73.2561 103.884 73.2561 101.436ZM109.525 97.476C110.101 96.348 110.917 95.472 111.973 94.848C113.053 94.224 114.361 93.912 115.897 93.912V97.296H115.033C111.361 97.296 109.525 99.288 109.525 103.272V114H106.249V94.272H109.525V97.476ZM141.638 103.38C141.638 104.004 141.602 104.664 141.53 105.36H125.762C125.882 107.304 126.542 108.828 127.742 109.932C128.966 111.012 130.442 111.552 132.17 111.552C133.586 111.552 134.762 111.228 135.698 110.58C136.658 109.908 137.33 109.02 137.714 107.916H141.242C140.714 109.812 139.658 111.36 138.074 112.56C136.49 113.736 134.522 114.324 132.17 114.324C130.298 114.324 128.618 113.904 127.13 113.064C125.666 112.224 124.514 111.036 123.674 109.5C122.834 107.94 122.414 106.14 122.414 104.1C122.414 102.06 122.822 100.272 123.638 98.736C124.454 97.2 125.594 96.024 127.058 95.208C128.546 94.368 130.25 93.948 132.17 93.948C134.042 93.948 135.698 94.356 137.138 95.172C138.578 95.988 139.682 97.116 140.45 98.556C141.242 99.972 141.638 101.58 141.638 103.38ZM138.254 102.696C138.254 101.448 137.978 100.38 137.426 99.492C136.874 98.58 136.118 97.896 135.158 97.44C134.222 96.96 133.178 96.72 132.026 96.72C130.37 96.72 128.954 97.248 127.778 98.304C126.626 99.36 125.966 100.824 125.798 102.696H138.254ZM148.699 104.064C148.699 102.048 149.107 100.284 149.923 98.772C150.739 97.236 151.855 96.048 153.271 95.208C154.711 94.368 156.307 93.948 158.059 93.948C159.787 93.948 161.287 94.32 162.559 95.064C163.831 95.808 164.779 96.744 165.403 97.872V94.272H168.715V114H165.403V110.328C164.755 111.48 163.783 112.44 162.487 113.208C161.215 113.952 159.727 114.324 158.023 114.324C156.271 114.324 154.687 113.892 153.271 113.028C151.855 112.164 150.739 110.952 149.923 109.392C149.107 107.832 148.699 106.056 148.699 104.064ZM165.403 104.1C165.403 102.612 165.103 101.316 164.503 100.212C163.903 99.108 163.087 98.268 162.055 97.692C161.047 97.092 159.931 96.792 158.707 96.792C157.483 96.792 156.367 97.08 155.359 97.656C154.351 98.232 153.547 99.072 152.947 100.176C152.347 101.28 152.047 102.576 152.047 104.064C152.047 105.576 152.347 106.896 152.947 108.024C153.547 109.128 154.351 109.98 155.359 110.58C156.367 111.156 157.483 111.444 158.707 111.444C159.931 111.444 161.047 111.156 162.055 110.58C163.087 109.98 163.903 109.128 164.503 108.024C165.103 106.896 165.403 105.588 165.403 104.1ZM182.207 96.972V108.6C182.207 109.56 182.411 110.244 182.819 110.652C183.227 111.036 183.935 111.228 184.943 111.228H187.355V114H184.403C182.579 114 181.211 113.58 180.299 112.74C179.387 111.9 178.931 110.52 178.931 108.6V96.972H176.375V94.272H178.931V89.304H182.207V94.272H187.355V96.972H182.207ZM196.976 91.068C196.352 91.068 195.824 90.852 195.392 90.42C194.96 89.988 194.744 89.46 194.744 88.836C194.744 88.212 194.96 87.684 195.392 87.252C195.824 86.82 196.352 86.604 196.976 86.604C197.576 86.604 198.08 86.82 198.488 87.252C198.92 87.684 199.136 88.212 199.136 88.836C199.136 89.46 198.92 89.988 198.488 90.42C198.08 90.852 197.576 91.068 196.976 91.068ZM198.56 94.272V114H195.284V94.272H198.56ZM216.707 114.324C214.859 114.324 213.179 113.904 211.667 113.064C210.179 112.224 209.003 111.036 208.139 109.5C207.299 107.94 206.879 106.14 206.879 104.1C206.879 102.084 207.311 100.308 208.175 98.772C209.063 97.212 210.263 96.024 211.775 95.208C213.287 94.368 214.979 93.948 216.851 93.948C218.723 93.948 220.415 94.368 221.927 95.208C223.439 96.024 224.627 97.2 225.491 98.736C226.379 100.272 226.823 102.06 226.823 104.1C226.823 106.14 226.367 107.94 225.455 109.5C224.567 111.036 223.355 112.224 221.819 113.064C220.283 113.904 218.579 114.324 216.707 114.324ZM216.707 111.444C217.883 111.444 218.987 111.168 220.019 110.616C221.051 110.064 221.879 109.236 222.503 108.132C223.151 107.028 223.475 105.684 223.475 104.1C223.475 102.516 223.163 101.172 222.539 100.068C221.915 98.964 221.099 98.148 220.091 97.62C219.083 97.068 217.991 96.792 216.815 96.792C215.615 96.792 214.511 97.068 213.503 97.62C212.519 98.148 211.727 98.964 211.127 100.068C210.527 101.172 210.227 102.516 210.227 104.1C210.227 105.708 210.515 107.064 211.091 108.168C211.691 109.272 212.483 110.1 213.467 110.652C214.451 111.18 215.531 111.444 216.707 111.444ZM244.703 93.912C247.103 93.912 249.047 94.644 250.535 96.108C252.023 97.548 252.767 99.636 252.767 102.372V114H249.527V102.84C249.527 100.872 249.035 99.372 248.051 98.34C247.067 97.284 245.723 96.756 244.019 96.756C242.291 96.756 240.911 97.296 239.879 98.376C238.871 99.456 238.367 101.028 238.367 103.092V114H235.091V94.272H238.367V97.08C239.015 96.072 239.891 95.292 240.995 94.74C242.123 94.188 243.359 93.912 244.703 93.912Z" fill="white"/>
<path d="M25.78 10.18L24.8769 10.6094L25.1482 11.18H25.78V10.18ZM22.756 6.796L22.2301 7.64667L22.2415 7.65349L22.756 6.796ZM13.396 6.796L13.8905 7.66518L13.8953 7.66243L13.396 6.796ZM10.084 10.252L9.20396 9.77706L9.20125 9.78215L10.084 10.252ZM10.084 20.62L9.20118 21.0899L9.20719 21.1008L10.084 20.62ZM13.396 24.076L12.8903 24.9387L12.899 24.9438L12.9078 24.9488L13.396 24.076ZM24.196 23.068L24.8747 23.8024L24.8747 23.8024L24.196 23.068ZM26.968 17.128L27.9625 17.2332L28.0793 16.128H26.968V17.128ZM16.96 17.128H15.96V18.128H16.96V17.128ZM16.96 14.464V13.464H15.96V14.464H16.96ZM30.46 14.464H31.46V13.464H30.46V14.464ZM30.46 16.984L31.4557 17.0766L31.46 17.0304V16.984H30.46ZM28.516 22.672L29.3553 23.2158L29.3587 23.2104L28.516 22.672ZM24.16 26.74L24.6397 27.6175L24.6486 27.6125L24.16 26.74ZM11.776 26.596L11.2775 27.4629L11.2857 27.4676L11.776 26.596ZM7.204 22.024L6.3344 22.5178L6.33906 22.5259L7.204 22.024ZM7.204 8.848L6.3364 8.35072L6.33444 8.35417L7.204 8.848ZM11.776 4.276L12.2663 5.14761L12.2745 5.1429L11.776 4.276ZM25.204 4.6L24.6607 5.43958L24.6652 5.44245L25.204 4.6ZM29.704 10.18V11.18H31.1674L30.6357 9.81665L29.704 10.18ZM26.6831 9.75064C25.9073 8.11871 24.7686 6.83735 23.2705 5.93851L22.2415 7.65349C23.3834 8.33864 24.2607 9.31328 24.8769 10.6094L26.6831 9.75064ZM23.2818 5.9454C21.7841 5.01957 20.0612 4.572 18.148 4.572V6.572C19.7388 6.572 21.0879 6.94043 22.2302 7.64659L23.2818 5.9454ZM18.148 4.572C16.2338 4.572 14.4755 5.01976 12.8967 5.92957L13.8953 7.66243C15.1485 6.94023 16.5582 6.572 18.148 6.572V4.572ZM12.9015 5.92683C11.3346 6.81831 10.1022 8.11264 9.20398 9.77707L10.964 10.7269C11.6978 9.36736 12.6734 8.35769 13.8905 7.66516L12.9015 5.92683ZM9.20125 9.78215C8.3203 11.4373 7.896 13.3317 7.896 15.436H9.896C9.896 13.6043 10.2637 12.0427 10.9667 10.7218L9.20125 9.78215ZM7.896 15.436C7.896 17.5403 8.3203 19.4347 9.20125 21.0898L10.9667 20.1502C10.2637 18.8293 9.896 17.2677 9.896 15.436H7.896ZM9.20719 21.1008C10.1054 22.7388 11.3341 24.0265 12.8903 24.9387L13.9017 23.2133C12.6739 22.4935 11.6946 21.4772 10.9608 20.1392L9.20719 21.1008ZM12.9078 24.9488C14.4848 25.8308 16.2391 26.264 18.148 26.264V24.264C16.5529 24.264 15.1392 23.9052 13.8842 23.2032L12.9078 24.9488ZM18.148 26.264C20.8111 26.264 23.0808 25.4604 24.8747 23.8024L23.5173 22.3336C22.1432 23.6036 20.3809 24.264 18.148 24.264V26.264ZM24.8747 23.8024C26.6654 22.1474 27.6774 19.9284 27.9625 17.2332L25.9735 17.0228C25.7306 19.3196 24.8946 21.0606 23.5173 22.3336L24.8747 23.8024ZM26.968 16.128H16.96V18.128H26.968V16.128ZM17.96 17.128V14.464H15.96V17.128H17.96ZM16.96 15.464H30.46V13.464H16.96V15.464ZM29.46 14.464V16.984H31.46V14.464H29.46ZM29.4643 16.8914C29.2869 18.7985 28.6905 20.5414 27.6733 22.1336L29.3587 23.2104C30.5495 21.3466 31.2491 19.2975 31.4557 17.0766L29.4643 16.8914ZM27.6767 22.1283C26.6626 23.6935 25.3319 24.9376 23.6714 25.8675L24.6486 27.6125C26.5881 26.5264 28.1614 25.0585 29.3553 23.2157L27.6767 22.1283ZM23.6803 25.8626C22.0386 26.7601 20.2015 27.216 18.148 27.216V29.216C20.5105 29.216 22.6814 28.6879 24.6397 27.6174L23.6803 25.8626ZM18.148 27.216C15.9816 27.216 14.028 26.7154 12.2663 25.7244L11.2857 27.4676C13.364 28.6366 15.6584 29.216 18.148 29.216V27.216ZM12.2745 25.7291C10.5089 24.7139 9.11028 23.3168 8.06894 21.5221L6.33906 22.5259C7.55372 24.6192 9.20313 26.2701 11.2775 27.4629L12.2745 25.7291ZM8.07356 21.5302C7.06303 19.7508 6.548 17.7278 6.548 15.436H4.548C4.548 18.0402 5.13697 20.4092 6.33444 22.5178L8.07356 21.5302ZM6.548 15.436C6.548 13.1442 7.06303 11.1212 8.07356 9.34182L6.33444 8.35417C5.13697 10.4628 4.548 12.8318 4.548 15.436H6.548ZM8.07159 9.34528C9.11268 7.52892 10.5083 6.13641 12.2663 5.14757L11.2857 3.40442C9.20367 4.57558 7.55133 6.23108 6.33641 8.35072L8.07159 9.34528ZM12.2745 5.1429C14.035 4.13063 15.9856 3.62 18.148 3.62V1.62C15.6544 1.62 13.357 2.21337 11.2775 3.40909L12.2745 5.1429ZM18.148 3.62C20.6385 3.62 22.7981 4.2343 24.6608 5.43957L25.7473 3.76043C23.5299 2.32569 20.9855 1.62 18.148 1.62V3.62ZM24.6652 5.44245C26.5413 6.64227 27.9091 8.3298 28.7723 10.5433L30.6357 9.81665C29.6269 7.2302 27.9947 5.19773 25.7428 3.75755L24.6652 5.44245ZM29.704 9.18H25.78V11.18H29.704V9.18ZM55.5635 19.36V20.36H56.4654L56.5582 19.4629L55.5635 19.36ZM39.7955 19.36V18.36H38.7319L38.7974 19.4216L39.7955 19.36ZM41.7755 23.932L41.0985 24.6679L41.1061 24.675L41.1139 24.6818L41.7755 23.932ZM49.7315 24.58L50.3008 25.4022L50.305 25.3992L49.7315 24.58ZM51.7475 21.916V20.916H51.0366L50.803 21.5875L51.7475 21.916ZM55.2755 21.916L56.2389 22.1843L56.5921 20.916H55.2755V21.916ZM52.1075 26.56L52.7037 27.3629L52.7114 27.3571L52.1075 26.56ZM41.1635 27.064L40.6659 27.9314L40.6719 27.9348L41.1635 27.064ZM37.7075 23.5L36.827 23.9741L36.8302 23.9798L37.7075 23.5ZM37.6715 12.736L38.5546 13.2052L38.5546 13.2052L37.6715 12.736ZM41.0915 9.208L41.5784 10.0815L41.5831 10.0788L41.0915 9.208ZM51.1715 9.172L50.6785 10.042L50.6785 10.042L51.1715 9.172ZM54.4835 12.556L53.6012 13.0266L53.6059 13.0354L53.6108 13.0442L54.4835 12.556ZM52.2875 16.696V17.696H53.2875V16.696H52.2875ZM51.4595 13.492L50.604 14.0098L50.6102 14.0199L51.4595 13.492ZM49.1915 11.44L48.7352 12.3298L48.7487 12.3368L48.7625 12.3433L49.1915 11.44ZM41.8115 12.304L41.1434 11.5599L41.1358 11.5668L41.8115 12.304ZM39.8315 16.696L38.8355 16.6066L38.7378 17.696H39.8315V16.696ZM54.6715 17.38C54.6715 17.9658 54.6377 18.5913 54.5688 19.2571L56.5582 19.4629C56.6333 18.7367 56.6715 18.0422 56.6715 17.38H54.6715ZM55.5635 18.36H39.7955V20.36H55.5635V18.36ZM38.7974 19.4216C38.93 21.57 39.6724 23.3559 41.0985 24.6679L42.4526 23.1961C41.4787 22.3001 40.901 21.038 40.7936 19.2984L38.7974 19.4216ZM41.1139 24.6818C42.5319 25.933 44.2474 26.552 46.2035 26.552V24.552C44.7036 24.552 43.4671 24.091 42.4372 23.1822L41.1139 24.6818ZM46.2035 26.552C47.773 26.552 49.1607 26.1915 50.3007 25.4022L49.1623 23.7578C48.4304 24.2645 47.4661 24.552 46.2035 24.552V26.552ZM50.305 25.3992C51.4367 24.607 52.2388 23.5476 52.692 22.2445L50.803 21.5875C50.4883 22.4924 49.9464 23.209 49.1581 23.7608L50.305 25.3992ZM51.7475 22.916H55.2755V20.916H51.7475V22.916ZM54.3122 21.6477C53.8435 23.3307 52.915 24.6937 51.5037 25.7629L52.7114 27.3571C54.468 26.0263 55.6515 24.2933 56.2389 22.1843L54.3122 21.6477ZM51.5114 25.7571C50.1311 26.7819 48.3833 27.324 46.2035 27.324V29.324C48.7278 29.324 50.916 28.6901 52.7036 27.3629L51.5114 25.7571ZM46.2035 27.324C44.4869 27.324 42.9791 26.9406 41.6551 26.1932L40.6719 27.9348C42.324 28.8674 44.1762 29.324 46.2035 29.324V27.324ZM41.6612 26.1966C40.3632 25.4519 39.3399 24.4008 38.5849 23.0202L36.8302 23.9798C37.7551 25.6712 39.0359 26.9961 40.6659 27.9314L41.6612 26.1966ZM38.588 23.0259C37.8376 21.6323 37.4475 19.9998 37.4475 18.1H35.4475C35.4475 20.2802 35.8974 22.2477 36.8271 23.9741L38.588 23.0259ZM37.4475 18.1C37.4475 16.1953 37.8277 14.5736 38.5546 13.2052L36.7884 12.2668C35.8834 13.9704 35.4475 15.9247 35.4475 18.1H37.4475ZM38.5546 13.2052C39.2839 11.8325 40.2892 10.8 41.5784 10.0815L40.6047 8.33452C38.9658 9.24798 37.6912 10.5675 36.7884 12.2668L38.5546 13.2052ZM41.5831 10.0788C42.9033 9.33357 44.4341 8.948 46.2035 8.948V6.948C44.133 6.948 42.2558 7.40243 40.5999 8.33718L41.5831 10.0788ZM46.2035 8.948C47.9258 8.948 49.4077 9.3219 50.6785 10.042L51.6645 8.30198C50.0554 7.3901 48.2253 6.948 46.2035 6.948V8.948ZM50.6785 10.042C51.956 10.7659 52.9238 11.7565 53.6012 13.0266L55.3659 12.0854C54.5073 10.4755 53.2671 9.2101 51.6645 8.30198L50.6785 10.042ZM53.6108 13.0442C54.3105 14.2951 54.6715 15.7318 54.6715 17.38H56.6715C56.6715 15.4282 56.2406 13.6489 55.3563 12.0678L53.6108 13.0442ZM53.2875 16.696C53.2875 15.2979 52.977 14.0389 52.3088 12.9641L50.6102 14.0199C51.0461 14.7211 51.2875 15.5981 51.2875 16.696H53.2875ZM52.315 12.9742C51.662 11.8953 50.758 11.077 49.6206 10.5367L48.7625 12.3433C49.5451 12.715 50.1531 13.2647 50.604 14.0098L52.315 12.9742ZM49.6478 10.5502C48.5576 9.99106 47.3548 9.72 46.0595 9.72V11.72C47.0682 11.72 47.9535 11.9289 48.7352 12.3298L49.6478 10.5502ZM46.0595 9.72C44.1698 9.72 42.5123 10.3307 41.1434 11.56L42.4797 13.048C43.4628 12.1653 44.6373 11.72 46.0595 11.72V9.72ZM41.1358 11.5668C39.7642 12.8241 39.0211 14.5394 38.8355 16.6066L40.8275 16.7854C40.978 15.1086 41.5549 13.8959 42.4873 13.0412L41.1358 11.5668ZM39.8315 17.696H52.2875V15.696H39.8315V17.696ZM66.8718 10.972V9.972H65.8718V10.972H66.8718ZM67.4838 24.652L66.7766 25.3591L66.7874 25.3698L66.7984 25.3802L67.4838 24.652ZM72.0198 25.228H73.0198V24.228H72.0198V25.228ZM72.0198 28V29H73.0198V28H72.0198ZM63.5958 10.972H64.5958V9.972H63.5958V10.972ZM61.0398 10.972H60.0398V11.972H61.0398V10.972ZM61.0398 8.272V7.272H60.0398V8.272H61.0398ZM63.5958 8.272V9.272H64.5958V8.272H63.5958ZM63.5958 3.304V2.304H62.5958V3.304H63.5958ZM66.8718 3.304H67.8718V2.304H66.8718V3.304ZM66.8718 8.272H65.8718V9.272H66.8718V8.272ZM72.0198 8.272H73.0198V7.272H72.0198V8.272ZM72.0198 10.972V11.972H73.0198V10.972H72.0198ZM65.8718 10.972V22.6H67.8718V10.972H65.8718ZM65.8718 22.6C65.8718 23.6586 66.0894 24.6718 66.7766 25.3591L68.1909 23.9449C68.0622 23.8162 67.8718 23.4614 67.8718 22.6H65.8718ZM66.7984 25.3802C67.4927 26.0336 68.5293 26.228 69.6078 26.228V24.228C68.6702 24.228 68.2908 24.0384 68.1691 23.9238L66.7984 25.3802ZM69.6078 26.228H72.0198V24.228H69.6078V26.228ZM71.0198 25.228V28H73.0198V25.228H71.0198ZM72.0198 27H69.0678V29H72.0198V27ZM69.0678 27C67.3784 27 66.2979 26.6093 65.6412 26.0045L64.2863 27.4755C65.4536 28.5507 67.1091 29 69.0678 29V27ZM65.6412 26.0045C65.0246 25.4365 64.5958 24.392 64.5958 22.6H62.5958C62.5958 24.648 63.0789 26.3635 64.2863 27.4755L65.6412 26.0045ZM64.5958 22.6V10.972H62.5958V22.6H64.5958ZM63.5958 9.972H61.0398V11.972H63.5958V9.972ZM62.0398 10.972V8.272H60.0398V10.972H62.0398ZM61.0398 9.272H63.5958V7.272H61.0398V9.272ZM64.5958 8.272V3.304H62.5958V8.272H64.5958ZM63.5958 4.304H66.8718V2.304H63.5958V4.304ZM65.8718 3.304V8.272H67.8718V3.304H65.8718ZM66.8718 9.272H72.0198V7.272H66.8718V9.272ZM71.0198 8.272V10.972H73.0198V8.272H71.0198ZM72.0198 9.972H66.8718V11.972H72.0198V9.972ZM82.865 10.972V9.972H81.865V10.972H82.865ZM83.477 24.652L82.7699 25.3591L82.7806 25.3698L82.7917 25.3802L83.477 24.652ZM88.013 25.228H89.013V24.228H88.013V25.228ZM88.013 28V29H89.013V28H88.013ZM79.589 10.972H80.589V9.972H79.589V10.972ZM77.033 10.972H76.033V11.972H77.033V10.972ZM77.033 8.272V7.272H76.033V8.272H77.033ZM79.589 8.272V9.272H80.589V8.272H79.589ZM79.589 3.304V2.304H78.589V3.304H79.589ZM82.865 3.304H83.865V2.304H82.865V3.304ZM82.865 8.272H81.865V9.272H82.865V8.272ZM88.013 8.272H89.013V7.272H88.013V8.272ZM88.013 10.972V11.972H89.013V10.972H88.013ZM81.865 10.972V22.6H83.865V10.972H81.865ZM81.865 22.6C81.865 23.6586 82.0826 24.6718 82.7699 25.3591L84.1841 23.9449C84.0554 23.8162 83.865 23.4614 83.865 22.6H81.865ZM82.7917 25.3802C83.4859 26.0336 84.5226 26.228 85.601 26.228V24.228C84.6634 24.228 84.2841 24.0384 84.1624 23.9238L82.7917 25.3802ZM85.601 26.228H88.013V24.228H85.601V26.228ZM87.013 25.228V28H89.013V25.228H87.013ZM88.013 27H85.061V29H88.013V27ZM85.061 27C83.3717 27 82.2912 26.6093 81.6345 26.0045L80.2796 27.4755C81.4469 28.5507 83.1024 29 85.061 29V27ZM81.6345 26.0045C81.0179 25.4365 80.589 24.392 80.589 22.6H78.589C78.589 24.648 79.0722 26.3635 80.2796 27.4755L81.6345 26.0045ZM80.589 22.6V10.972H78.589V22.6H80.589ZM79.589 9.972H77.033V11.972H79.589V9.972ZM78.033 10.972V8.272H76.033V10.972H78.033ZM77.033 9.272H79.589V7.272H77.033V9.272ZM80.589 8.272V3.304H78.589V8.272H80.589ZM79.589 4.304H82.865V2.304H79.589V4.304ZM81.865 3.304V8.272H83.865V3.304H81.865ZM82.865 9.272H88.013V7.272H82.865V9.272ZM87.013 8.272V10.972H89.013V8.272H87.013ZM88.013 9.972H82.865V11.972H88.013V9.972ZM94.9703 4.42L95.6774 3.71289L95.6774 3.71289L94.9703 4.42ZM94.9703 1.252L95.6774 1.95911L95.6774 1.95911L94.9703 1.252ZM98.0663 1.252L97.3393 1.93862L97.3491 1.94901L97.3592 1.95911L98.0663 1.252ZM98.0663 4.42L97.3592 3.71289L97.3491 3.72299L97.3393 3.73338L98.0663 4.42ZM98.1383 8.272H99.1383V7.272H98.1383V8.272ZM98.1383 28V29H99.1383V28H98.1383ZM94.8623 28H93.8623V29H94.8623V28ZM94.8623 8.272V7.272H93.8623V8.272H94.8623ZM96.5543 4.068C96.1892 4.068 95.9174 3.95291 95.6774 3.71289L94.2632 5.12711C94.8872 5.75109 95.6715 6.068 96.5543 6.068V4.068ZM95.6774 3.71289C95.4374 3.47287 95.3223 3.20114 95.3223 2.836H93.3223C93.3223 3.71886 93.6392 4.50312 94.2632 5.12711L95.6774 3.71289ZM95.3223 2.836C95.3223 2.47086 95.4374 2.19912 95.6774 1.95911L94.2632 0.544892C93.6392 1.16887 93.3223 1.95314 93.3223 2.836H95.3223ZM95.6774 1.95911C95.9174 1.71909 96.1892 1.604 96.5543 1.604V-0.396001C95.6715 -0.396001 94.8872 -0.0790908 94.2632 0.544892L95.6774 1.95911ZM96.5543 1.604C96.8822 1.604 97.1223 1.70884 97.3393 1.93862L98.7933 0.565375C98.1943 -0.0688467 97.4264 -0.396001 96.5543 -0.396001V1.604ZM97.3592 1.95911C97.5992 2.19912 97.7143 2.47086 97.7143 2.836H99.7143C99.7143 1.95314 99.3974 1.16887 98.7734 0.544892L97.3592 1.95911ZM97.7143 2.836C97.7143 3.20114 97.5992 3.47287 97.3592 3.71289L98.7734 5.12711C99.3974 4.50312 99.7143 3.71886 99.7143 2.836H97.7143ZM97.3393 3.73338C97.1223 3.96315 96.8822 4.068 96.5543 4.068V6.068C97.4264 6.068 98.1943 5.74084 98.7933 5.10662L97.3393 3.73338ZM97.1383 8.272V28H99.1383V8.272H97.1383ZM98.1383 27H94.8623V29H98.1383V27ZM95.8623 28V8.272H93.8623V28H95.8623ZM94.8623 9.272H98.1383V7.272H94.8623V9.272ZM122.046 10.108L121.344 10.8209L121.35 10.8266L122.046 10.108ZM124.278 28V29H125.278V28H124.278ZM121.038 28H120.038V29H121.038V28ZM119.562 12.34L118.83 13.0218L118.838 13.0301L119.562 12.34ZM111.39 12.376L110.667 11.6851L110.659 11.6937L111.39 12.376ZM109.878 28V29H110.878V28H109.878ZM106.602 28H105.602V29H106.602V28ZM106.602 8.272V7.272H105.602V8.272H106.602ZM109.878 8.272H110.878V7.272H109.878V8.272ZM109.878 11.08H108.878V14.4848L110.719 11.6208L109.878 11.08ZM112.506 8.74L112.066 7.84175L112.058 7.84557L112.506 8.74ZM116.214 8.912C118.394 8.912 120.072 9.56866 121.344 10.8208L122.747 9.39517C121.044 7.71933 118.834 6.912 116.214 6.912V8.912ZM121.35 10.8266C122.587 12.0233 123.278 13.8162 123.278 16.372H125.278C125.278 13.4558 124.481 11.0727 122.741 9.3894L121.35 10.8266ZM123.278 16.372V28H125.278V16.372H123.278ZM124.278 27H121.038V29H124.278V27ZM122.038 28V16.84H120.038V28H122.038ZM122.038 16.84C122.038 14.714 121.505 12.9289 120.285 11.6499L118.838 13.0301C119.586 13.8151 120.038 15.03 120.038 16.84H122.038ZM120.293 11.6583C119.086 10.3626 117.457 9.756 115.53 9.756V11.756C117.011 11.756 118.069 12.2054 118.83 13.0217L120.293 11.6583ZM115.53 9.756C113.575 9.756 111.917 10.3763 110.667 11.6851L112.113 13.0669C112.926 12.2157 114.028 11.756 115.53 11.756V9.756ZM110.659 11.6937C109.419 13.0215 108.878 14.8758 108.878 17.092H110.878C110.878 15.1802 111.344 13.8905 112.121 13.0583L110.659 11.6937ZM108.878 17.092V28H110.878V17.092H108.878ZM109.878 27H106.602V29H109.878V27ZM107.602 28V8.272H105.602V28H107.602ZM106.602 9.272H109.878V7.272H106.602V9.272ZM108.878 8.272V11.08H110.878V8.272H108.878ZM110.719 11.6208C111.267 10.7686 112.005 10.1086 112.953 9.63443L112.058 7.84557C110.799 8.4754 109.785 9.37541 109.037 10.5392L110.719 11.6208ZM112.945 9.63822C113.927 9.15783 115.011 8.912 116.214 8.912V6.912C114.728 6.912 113.34 7.21817 112.066 7.84178L112.945 9.63822ZM145.109 9.064L144.604 9.92722L144.611 9.93125L145.109 9.064ZM147.989 11.872L147.114 12.3561L148.989 11.872H147.989ZM147.989 8.272V7.272H146.989V8.272H147.989ZM151.301 8.272H152.301V7.272H151.301V8.272ZM150.149 33.22L149.273 32.7369L149.27 32.7432L150.149 33.22ZM146.837 36.532L146.355 35.6558L146.349 35.6592L146.837 36.532ZM135.389 35.884L134.811 36.7L134.811 36.7L135.389 35.884ZM132.329 30.88V29.88H131.17L131.34 31.0261L132.329 30.88ZM135.569 30.88L136.527 30.5927L136.313 29.88H135.569V30.88ZM137.801 33.76L138.352 32.9252L138.345 32.9211L138.339 32.9171L137.801 33.76ZM146.261 33.184L145.561 32.4695L145.554 32.4769L146.261 33.184ZM147.989 24.292H148.989V20.4745L147.117 23.8017L147.989 24.292ZM145.109 27.172L144.592 26.3159L145.109 27.172ZM135.857 27.028L135.336 27.8817L135.343 27.8855L135.857 27.028ZM132.509 23.392L133.395 22.9285L133.395 22.9285L132.509 23.392ZM132.509 12.772L133.389 13.2469L133.392 13.2412L132.509 12.772ZM135.857 9.208L135.353 8.3442L135.347 8.34794L135.857 9.208ZM144.641 11.692L144.13 12.5513L144.142 12.5584L144.154 12.5652L144.641 11.692ZM137.945 11.656L137.449 10.7878L137.449 10.7878L137.945 11.656ZM135.533 14.176L136.412 14.6535L136.412 14.6535L135.533 14.176ZM135.533 22.024L134.65 22.4936L134.654 22.5015L135.533 22.024ZM137.945 24.58L137.434 25.4393L137.441 25.4438L137.449 25.4482L137.945 24.58ZM144.641 24.58L145.137 25.4483L145.144 25.4445L144.641 24.58ZM147.089 22.024L147.968 22.5015L147.972 22.4936L147.089 22.024ZM140.645 8.948C142.2 8.948 143.508 9.28598 144.604 9.92719L145.614 8.20081C144.166 7.35401 142.498 6.948 140.645 6.948V8.948ZM144.611 9.93125C145.774 10.5991 146.592 11.4118 147.114 12.3561L148.864 11.3879C148.138 10.0762 147.036 9.01694 145.607 8.19675L144.611 9.93125ZM148.989 11.872V8.272H146.989V11.872H148.989ZM147.989 9.272H151.301V7.272H147.989V9.272ZM150.301 8.272V28.432H152.301V8.272H150.301ZM150.301 28.432C150.301 30.0857 149.95 31.5115 149.273 32.7369L151.025 33.7031C151.885 32.1445 152.301 30.3783 152.301 28.432H150.301ZM149.27 32.7432C148.595 33.9872 147.631 34.9542 146.355 35.6558L147.319 37.4082C148.923 36.5258 150.167 35.2848 151.028 33.6968L149.27 32.7432ZM146.349 35.6592C145.105 36.3547 143.623 36.72 141.869 36.72V38.72C143.907 38.72 145.737 38.2933 147.325 37.4048L146.349 35.6592ZM141.869 36.72C139.437 36.72 137.491 36.1477 135.967 35.068L134.811 36.7C136.743 38.0683 139.117 38.72 141.869 38.72V36.72ZM135.967 35.068C134.464 34.0032 133.591 32.5783 133.318 30.7339L131.34 31.0261C131.691 33.4057 132.858 35.3168 134.811 36.7L135.967 35.068ZM132.329 31.88H135.569V29.88H132.329V31.88ZM134.611 31.1673C135.045 32.6132 135.948 33.7635 137.263 34.6029L138.339 32.9171C137.398 32.3165 136.813 31.5468 136.527 30.5927L134.611 31.1673ZM137.25 34.5948C138.568 35.4641 140.124 35.876 141.869 35.876V33.876C140.446 33.876 139.29 33.5439 138.352 32.9252L137.25 34.5948ZM141.869 35.876C143.897 35.876 145.628 35.2314 146.968 33.8911L145.554 32.4769C144.638 33.3926 143.441 33.876 141.869 33.876V35.876ZM146.961 33.8985C148.353 32.5356 148.989 30.6656 148.989 28.432H146.989C146.989 30.2784 146.473 31.5764 145.561 32.4695L146.961 33.8985ZM148.989 28.432V24.292H146.989V28.432H148.989ZM147.117 23.8017C146.564 24.7853 145.735 25.6259 144.592 26.3159L145.626 28.0281C147.027 27.1821 148.118 26.1027 148.861 24.7823L147.117 23.8017ZM144.592 26.3159C143.498 26.9766 142.194 27.324 140.645 27.324V29.324C142.504 29.324 144.176 28.9034 145.626 28.0281L144.592 26.3159ZM140.645 27.324C139.066 27.324 137.649 26.9371 136.372 26.1705L135.343 27.8855C136.945 28.8469 138.72 29.324 140.645 29.324V27.324ZM136.378 26.1744C135.126 25.4107 134.132 24.338 133.395 22.9285L131.623 23.8555C132.518 25.566 133.756 26.9173 135.336 27.8816L136.378 26.1744ZM133.395 22.9285C132.663 21.5294 132.285 19.916 132.285 18.064H130.285C130.285 20.196 130.723 22.1346 131.623 23.8555L133.395 22.9285ZM132.285 18.064C132.285 16.185 132.664 14.5896 133.389 13.2469L131.629 12.2971C130.722 13.9784 130.285 15.911 130.285 18.064H132.285ZM133.392 13.2412C134.127 11.8577 135.118 10.8091 136.367 10.0681L135.347 8.34794C133.764 9.28693 132.523 10.6143 131.626 12.3028L133.392 13.2412ZM136.361 10.0718C137.64 9.3256 139.061 8.948 140.645 8.948V6.948C138.725 6.948 136.954 7.41039 135.353 8.34422L136.361 10.0718ZM148.989 18.1C148.989 16.4759 148.661 15.0099 147.968 13.7345L146.21 14.6895C146.717 15.6221 146.989 16.7481 146.989 18.1H148.989ZM147.968 13.7345C147.283 12.4752 146.336 11.4929 145.128 10.8188L144.154 12.5652C145.01 13.0431 145.695 13.7408 146.21 14.6895L147.968 13.7345ZM145.153 10.8327C143.983 10.1365 142.689 9.792 141.293 9.792V11.792C142.345 11.792 143.283 12.0475 144.13 12.5513L145.153 10.8327ZM141.293 9.792C139.905 9.792 138.616 10.1207 137.449 10.7878L138.441 12.5242C139.29 12.0393 140.233 11.792 141.293 11.792V9.792ZM137.449 10.7878C136.266 11.4635 135.336 12.4452 134.654 13.6985L136.412 14.6535C136.931 13.6988 137.608 13.0005 138.441 12.5242L137.449 10.7878ZM134.654 13.6985C133.961 14.9739 133.633 16.4399 133.633 18.064H135.633C135.633 16.7121 135.905 15.5861 136.412 14.6535L134.654 13.6985ZM133.633 18.064C133.633 19.7098 133.96 21.1967 134.65 22.4936L136.416 21.5544C135.906 20.5953 135.633 19.4422 135.633 18.064H133.633ZM134.654 22.5015C135.334 23.7518 136.26 24.7408 137.434 25.4393L138.457 23.7207C137.614 23.2192 136.932 22.5042 136.412 21.5465L134.654 22.5015ZM137.449 25.4482C138.616 26.1153 139.905 26.444 141.293 26.444V24.444C140.233 24.444 139.29 24.1967 138.441 23.7118L137.449 25.4482ZM141.293 26.444C142.681 26.444 143.97 26.1153 145.137 25.4482L144.145 23.7118C143.296 24.1967 142.353 24.444 141.293 24.444V26.444ZM145.144 25.4445C146.343 24.7475 147.285 23.7577 147.968 22.5015L146.21 21.5465C145.693 22.4983 145.004 23.2125 144.138 23.7155L145.144 25.4445ZM147.972 22.4936C148.661 21.1989 148.989 19.7247 148.989 18.1H146.989C146.989 19.4513 146.717 20.5931 146.206 21.5544L147.972 22.4936ZM10.264 70.388L9.84388 71.2955L9.85392 71.3001L9.86406 71.3045L10.264 70.388ZM7.204 67.94L6.38647 68.516L6.39282 68.5248L7.204 67.94ZM6.052 64.304V63.304H5.0343L5.05215 64.3215L6.052 64.304ZM9.544 64.304L10.5388 64.2025L10.4472 63.304H9.544V64.304ZM10.984 67.292L10.2872 68.0093L10.2976 68.0194L10.3083 68.0292L10.984 67.292ZM18.4 67.328L19.0542 68.0844L19.0557 68.083L18.4 67.328ZM18.976 61.964L18.2253 62.6246L18.2253 62.6246L18.976 61.964ZM16.996 60.596L16.6295 61.5264L16.6295 61.5264L16.996 60.596ZM13.792 59.588L14.0507 58.622L14.0444 58.6204L13.792 59.588ZM9.796 58.292L9.39399 59.2077L9.40208 59.2111L9.796 58.292ZM7.24 56.276L6.43754 56.8727L6.44616 56.8843L6.45512 56.8956L7.24 56.276ZM7.24 48.896L8.07496 49.4463L8.07496 49.4463L7.24 48.896ZM10.156 46.448L9.74348 45.537L9.73694 45.54L10.156 46.448ZM20.272 47.348L19.6519 48.1326L19.6581 48.1374L20.272 47.348ZM22.828 52.028V53.028H23.9316L23.8232 51.9297L22.828 52.028ZM19.228 52.028L18.2357 52.152L18.3452 53.028H19.228V52.028ZM17.716 49.508L17.0738 50.2745L17.0799 50.2797L17.0862 50.2848L17.716 49.508ZM10.84 49.472L11.4673 50.2508L11.4738 50.2455L11.4802 50.2402L10.84 49.472ZM10.3 54.656L9.54742 55.3145L9.55504 55.3232L9.56285 55.3317L10.3 54.656ZM12.208 55.988L11.8213 56.9102L11.8389 56.9176L11.8569 56.9243L12.208 55.988ZM15.412 56.996L15.1417 57.9588L15.1465 57.9601L15.412 56.996ZM19.408 58.364L18.9958 59.2751L19.0049 59.2792L19.0141 59.2831L19.408 58.364ZM22 60.416L21.2073 61.0258L21.2151 61.0356L22 60.416ZM22.108 67.616L22.9655 68.1305L22.9655 68.1305L22.108 67.616ZM19.228 70.244L18.7609 69.3598L19.228 70.244ZM14.728 70.252C13.1891 70.252 11.8403 69.9848 10.6639 69.4715L9.86406 71.3045C11.3277 71.9432 12.9549 72.252 14.728 72.252V70.252ZM10.6841 69.4805C9.52456 68.9437 8.64686 68.2314 8.01518 67.3552L6.39282 68.5248C7.24914 69.7126 8.41144 70.6323 9.84388 71.2955L10.6841 69.4805ZM8.02148 67.364C7.3998 66.4817 7.07255 65.4668 7.05185 64.2865L5.05215 64.3215C5.07945 65.8772 5.5202 67.2863 6.38652 68.516L8.02148 67.364ZM6.052 65.304H9.544V63.304H6.052V65.304ZM8.54917 64.4055C8.69279 65.813 9.27683 67.0278 10.2872 68.0093L11.6808 66.5747C11.0112 65.9242 10.6352 65.147 10.5388 64.2025L8.54917 64.4055ZM10.3083 68.0292C11.4184 69.0467 12.9444 69.48 14.728 69.48V67.48C13.2476 67.48 12.2776 67.1213 11.6597 66.5548L10.3083 68.0292ZM14.728 69.48C16.4483 69.48 17.9319 69.0549 19.0542 68.0844L17.7458 66.5716C17.0921 67.1371 16.1277 67.48 14.728 67.48V69.48ZM19.0557 68.083C20.1897 67.0982 20.768 65.8132 20.768 64.304H18.768C18.768 65.2428 18.4343 65.9738 17.7443 66.573L19.0557 68.083ZM20.768 64.304C20.768 63.1522 20.4463 62.1211 19.7267 61.3034L18.2253 62.6246C18.5617 63.0069 18.768 63.5358 18.768 64.304H20.768ZM19.7267 61.3034C19.0871 60.5765 18.2923 60.0319 17.3625 59.6656L16.6295 61.5264C17.2837 61.7841 17.8089 62.1515 18.2253 62.6246L19.7267 61.3034ZM17.3625 59.6656C16.5203 59.3338 15.4115 58.9865 14.0507 58.6221L13.5333 60.5539C14.8605 60.9095 15.8877 61.2342 16.6295 61.5264L17.3625 59.6656ZM14.0444 58.6204C12.4132 58.1948 11.1341 57.7775 10.1899 57.3729L9.40208 59.2111C10.4739 59.6705 11.8588 60.1172 13.5396 60.5556L14.0444 58.6204ZM10.198 57.3764C9.37594 57.0155 8.65186 56.4505 8.02488 55.6564L6.45512 56.8956C7.26814 57.9255 8.24806 58.7045 9.39401 59.2076L10.198 57.3764ZM8.04246 55.6793C7.51185 54.9657 7.196 53.9489 7.196 52.532H5.196C5.196 54.2351 5.57615 55.7143 6.43754 56.8727L8.04246 55.6793ZM7.196 52.532C7.196 51.3429 7.49545 50.3256 8.07496 49.4463L6.40504 48.3457C5.59255 49.5784 5.196 50.9851 5.196 52.532H7.196ZM8.07496 49.4463C8.65951 48.5594 9.48107 47.8609 10.5751 47.356L9.73694 45.54C8.33493 46.1871 7.21249 47.1206 6.40504 48.3457L8.07496 49.4463ZM10.5685 47.359C11.6908 46.8507 12.9985 46.584 14.512 46.584V44.584C12.7615 44.584 11.1652 44.8933 9.74349 45.537L10.5685 47.359ZM14.512 46.584C16.6943 46.584 18.3795 47.1269 19.6519 48.1326L20.8921 46.5634C19.1885 45.2171 17.0337 44.584 14.512 44.584V46.584ZM19.6581 48.1374C20.9488 49.1413 21.6672 50.449 21.8328 52.1263L23.8232 51.9297C23.6048 49.7189 22.6192 47.9067 20.8859 46.5586L19.6581 48.1374ZM22.828 51.028H19.228V53.028H22.828V51.028ZM20.2203 51.904C20.0625 50.642 19.3954 49.5823 18.3458 48.7312L17.0862 50.2848C17.8126 50.8737 18.1535 51.494 18.2357 52.152L20.2203 51.904ZM18.3582 48.7415C17.2469 47.8103 15.8233 47.392 14.188 47.392V49.392C15.4807 49.392 16.4091 49.7177 17.0738 50.2745L18.3582 48.7415ZM14.188 47.392C12.6386 47.392 11.2801 47.8035 10.1998 48.7038L11.4802 50.2402C12.1279 49.7005 13.0014 49.392 14.188 49.392V47.392ZM10.2127 48.6932C9.07673 49.6083 8.544 50.8993 8.544 52.424H10.544C10.544 51.4047 10.8753 50.7277 11.4673 50.2508L10.2127 48.6932ZM8.544 52.424C8.544 53.5294 8.85447 54.5226 9.54742 55.3145L11.0526 53.9975C10.7375 53.6374 10.544 53.1426 10.544 52.424H8.544ZM9.56285 55.3317C10.1917 56.0177 10.9485 56.5442 11.8213 56.9102L12.5947 55.0658C11.9795 54.8078 11.4643 54.4463 11.0372 53.9803L9.56285 55.3317ZM11.8569 56.9243C12.6638 57.2269 13.7631 57.5718 15.1417 57.9588L15.6823 56.0332C14.3249 55.6522 13.2882 55.3251 12.5591 55.0517L11.8569 56.9243ZM15.1465 57.9601C16.7765 58.409 18.0537 58.8489 18.9958 59.2751L19.8202 57.4529C18.7463 56.9671 17.3595 56.495 15.6775 56.0319L15.1465 57.9601ZM19.0141 59.2831C19.8529 59.6426 20.5834 60.2145 21.2074 61.0257L22.7926 59.8063C21.9766 58.7455 20.9791 57.9494 19.8019 57.4449L19.0141 59.2831ZM21.2151 61.0356C21.7528 61.7167 22.08 62.7199 22.08 64.16H24.08C24.08 62.4321 23.6872 60.9393 22.7849 59.7964L21.2151 61.0356ZM22.08 64.16C22.08 65.1973 21.8081 66.1722 21.2505 67.1015L22.9655 68.1305C23.7039 66.8998 24.08 65.5707 24.08 64.16H22.08ZM21.2505 67.1015C20.7092 68.0037 19.8949 68.7607 18.7609 69.3598L19.6951 71.1282C21.1051 70.3833 22.2108 69.3883 22.9655 68.1305L21.2505 67.1015ZM18.7609 69.3598C17.6591 69.9419 16.3257 70.252 14.728 70.252V72.252C16.5863 72.252 18.2529 71.8901 19.6951 71.1282L18.7609 69.3598ZM34.7769 53.972V52.972H33.7769V53.972H34.7769ZM35.3889 67.652L34.6818 68.3591L34.6925 68.3698L34.7035 68.3802L35.3889 67.652ZM39.9249 68.228H40.9249V67.228H39.9249V68.228ZM39.9249 71V72H40.9249V71H39.9249ZM31.5009 53.972H32.5009V52.972H31.5009V53.972ZM28.9449 53.972H27.9449V54.972H28.9449V53.972ZM28.9449 51.272V50.272H27.9449V51.272H28.9449ZM31.5009 51.272V52.272H32.5009V51.272H31.5009ZM31.5009 46.304V45.304H30.5009V46.304H31.5009ZM34.7769 46.304H35.7769V45.304H34.7769V46.304ZM34.7769 51.272H33.7769V52.272H34.7769V51.272ZM39.9249 51.272H40.9249V50.272H39.9249V51.272ZM39.9249 53.972V54.972H40.9249V53.972H39.9249ZM33.7769 53.972V65.6H35.7769V53.972H33.7769ZM33.7769 65.6C33.7769 66.6586 33.9945 67.6718 34.6818 68.3591L36.096 66.9449C35.9673 66.8162 35.7769 66.4614 35.7769 65.6H33.7769ZM34.7035 68.3802C35.3978 69.0336 36.4345 69.228 37.5129 69.228V67.228C36.5753 67.228 36.196 67.0384 36.0743 66.9238L34.7035 68.3802ZM37.5129 69.228H39.9249V67.228H37.5129V69.228ZM38.9249 68.228V71H40.9249V68.228H38.9249ZM39.9249 70H36.9729V72H39.9249V70ZM36.9729 70C35.2836 70 34.2031 69.6093 33.5464 69.0045L32.1914 70.4755C33.3588 71.5507 35.0142 72 36.9729 72V70ZM33.5464 69.0045C32.9298 68.4365 32.5009 67.392 32.5009 65.6H30.5009C30.5009 67.648 30.9841 69.3635 32.1914 70.4755L33.5464 69.0045ZM32.5009 65.6V53.972H30.5009V65.6H32.5009ZM31.5009 52.972H28.9449V54.972H31.5009V52.972ZM29.9449 53.972V51.272H27.9449V53.972H29.9449ZM28.9449 52.272H31.5009V50.272H28.9449V52.272ZM32.5009 51.272V46.304H30.5009V51.272H32.5009ZM31.5009 47.304H34.7769V45.304H31.5009V47.304ZM33.7769 46.304V51.272H35.7769V46.304H33.7769ZM34.7769 52.272H39.9249V50.272H34.7769V52.272ZM38.9249 51.272V53.972H40.9249V51.272H38.9249ZM39.9249 52.972H34.7769V54.972H39.9249V52.972ZM46.7742 55.772L47.6542 56.2469L47.6573 56.2412L46.7742 55.772ZM50.1222 52.208L49.6183 51.3442L49.612 51.3479L50.1222 52.208ZM59.4102 52.064L58.9053 52.9272L58.9053 52.9272L59.4102 52.064ZM62.2542 54.872L61.3792 55.3561L63.2542 54.872H62.2542ZM62.2542 51.272V50.272H61.2542V51.272H62.2542ZM65.5662 51.272H66.5662V50.272H65.5662V51.272ZM65.5662 71V72H66.5662V71H65.5662ZM62.2542 71H61.2542V72H62.2542V71ZM62.2542 67.328H63.2542V63.5105L61.3826 66.8377L62.2542 67.328ZM59.3382 70.208L59.8431 71.0712L59.848 71.0683L59.3382 70.208ZM50.1222 70.028L49.6013 70.8816L49.6013 70.8816L50.1222 70.028ZM46.7742 66.392L47.6603 65.9285L47.6603 65.9285L46.7742 66.392ZM58.9062 54.692L58.3947 55.5513L58.4067 55.5584L58.4188 55.5652L58.9062 54.692ZM52.2102 54.656L51.7141 53.7878L51.7141 53.7878L52.2102 54.656ZM49.7982 57.176L50.6768 57.6535L50.6768 57.6535L49.7982 57.176ZM49.7982 65.024L48.9153 65.4936L48.9196 65.5015L49.7982 65.024ZM52.2102 67.58L51.6987 68.4393L51.7063 68.4438L51.7141 68.4482L52.2102 67.58ZM58.9062 67.58L59.4023 68.4483L59.4088 68.4445L58.9062 67.58ZM61.3542 65.024L62.2329 65.5015L62.2371 65.4936L61.3542 65.024ZM46.5502 61.064C46.5502 59.185 46.9296 57.5896 47.6542 56.2469L45.8942 55.2971C44.9868 56.9784 44.5502 58.911 44.5502 61.064H46.5502ZM47.6573 56.2412C48.3923 54.8577 49.3832 53.8091 50.6324 53.0681L49.612 51.3479C48.0291 52.2869 46.7881 53.6143 45.8911 55.3028L47.6573 56.2412ZM50.6261 53.0718C51.9052 52.3256 53.3259 51.948 54.9102 51.948V49.948C52.9905 49.948 51.2192 50.4104 49.6183 51.3442L50.6261 53.0718ZM54.9102 51.948C56.4917 51.948 57.8111 52.2872 58.9053 52.9272L59.9151 51.2008C58.4653 50.3528 56.7847 49.948 54.9102 49.948V51.948ZM58.9053 52.9272C60.0447 53.5936 60.8541 54.4069 61.3792 55.3561L63.1292 54.3879C62.4063 53.0811 61.3197 52.0224 59.9151 51.2008L58.9053 52.9272ZM63.2542 54.872V51.272H61.2542V54.872H63.2542ZM62.2542 52.272H65.5662V50.272H62.2542V52.272ZM64.5662 51.272V71H66.5662V51.272H64.5662ZM65.5662 70H62.2542V72H65.5662V70ZM63.2542 71V67.328H61.2542V71H63.2542ZM61.3826 66.8377C60.8321 67.8164 59.9949 68.6565 58.8284 69.3477L59.848 71.0683C61.2735 70.2235 62.3803 69.1436 63.1258 67.8183L61.3826 66.8377ZM58.8333 69.3448C57.7371 69.986 56.4289 70.324 54.8742 70.324V72.324C56.7275 72.324 58.3953 71.918 59.8431 71.0712L58.8333 69.3448ZM54.8742 70.324C53.2952 70.324 51.8932 69.9372 50.6431 69.1744L49.6013 70.8816C51.1832 71.8468 52.9492 72.324 54.8742 72.324V70.324ZM50.6431 69.1744C49.3915 68.4107 48.3976 67.338 47.6603 65.9285L45.8881 66.8555C46.7828 68.566 48.0208 69.9173 49.6013 70.8816L50.6431 69.1744ZM47.6603 65.9285C46.9285 64.5294 46.5502 62.916 46.5502 61.064H44.5502C44.5502 63.196 44.9879 65.1346 45.8881 66.8555L47.6603 65.9285ZM63.2542 61.1C63.2542 59.4759 62.926 58.0099 62.2328 56.7345L60.4756 57.6895C60.9824 58.6221 61.2542 59.7481 61.2542 61.1H63.2542ZM62.2328 56.7345C61.5484 55.4752 60.6014 54.4929 59.3936 53.8188L58.4188 55.5652C59.275 56.0431 59.96 56.7408 60.4756 57.6895L62.2328 56.7345ZM59.4177 53.8327C58.2481 53.1365 56.9541 52.792 55.5582 52.792V54.792C56.6103 54.792 57.5483 55.0475 58.3947 55.5513L59.4177 53.8327ZM55.5582 52.792C54.17 52.792 52.8814 53.1207 51.7141 53.7878L52.7063 55.5242C53.5549 55.0393 54.4984 54.792 55.5582 54.792V52.792ZM51.7141 53.7878C50.5315 54.4635 49.6007 55.4452 48.9196 56.6985L50.6768 57.6535C51.1957 56.6988 51.8729 56.0005 52.7063 55.5242L51.7141 53.7878ZM48.9196 56.6985C48.2264 57.9739 47.8982 59.4399 47.8982 61.064H49.8982C49.8982 59.7121 50.17 58.5861 50.6768 57.6535L48.9196 56.6985ZM47.8982 61.064C47.8982 62.7098 48.2255 64.1967 48.9153 65.4936L50.6811 64.5544C50.1709 63.5953 49.8982 62.4422 49.8982 61.064H47.8982ZM48.9196 65.5015C49.5991 66.7518 50.5252 67.7408 51.6987 68.4393L52.7217 66.7207C51.8792 66.2192 51.1973 65.5042 50.6768 64.5465L48.9196 65.5015ZM51.7141 68.4482C52.8814 69.1153 54.17 69.444 55.5582 69.444V67.444C54.4984 67.444 53.5549 67.1967 52.7063 66.7118L51.7141 68.4482ZM55.5582 69.444C56.9464 69.444 58.2349 69.1153 59.4023 68.4482L58.4101 66.7118C57.5614 67.1967 56.618 67.444 55.5582 67.444V69.444ZM59.4088 68.4445C60.6077 67.7475 61.5501 66.7577 62.2328 65.5015L60.4756 64.5465C59.9583 65.4983 59.2687 66.2125 58.4036 66.7155L59.4088 68.4445ZM62.2371 65.4936C62.9257 64.1989 63.2542 62.7247 63.2542 61.1H61.2542C61.2542 62.4513 60.9826 63.5931 60.4713 64.5544L62.2371 65.4936ZM77.2583 54.476H76.2583L78.1489 54.9308L77.2583 54.476ZM79.7063 51.848L79.206 50.9821L79.1976 50.9871L79.7063 51.848ZM83.6303 50.912H84.6303V49.912H83.6303V50.912ZM83.6303 54.296V55.296H84.6303V54.296H83.6303ZM77.2583 71V72H78.2583V71H77.2583ZM73.9823 71H72.9823V72H73.9823V71ZM73.9823 51.272V50.272H72.9823V51.272H73.9823ZM77.2583 51.272H78.2583V50.272H77.2583V51.272ZM78.1489 54.9308C78.6417 53.9658 79.3278 53.2332 80.215 52.7089L79.1976 50.9871C77.9728 51.7108 77.027 52.7302 76.3677 54.0212L78.1489 54.9308ZM80.2066 52.7139C81.103 52.1959 82.2296 51.912 83.6303 51.912V49.912C81.959 49.912 80.4696 50.2521 79.206 50.9821L80.2066 52.7139ZM82.6303 50.912V54.296H84.6303V50.912H82.6303ZM83.6303 53.296H82.7663V55.296H83.6303V53.296ZM82.7663 53.296C80.7543 53.296 79.0675 53.8455 77.9 55.1123C76.7467 56.3636 76.2583 58.1452 76.2583 60.272H78.2583C78.2583 58.4148 78.688 57.2084 79.3706 56.4677C80.0391 55.7425 81.1064 55.296 82.7663 55.296V53.296ZM76.2583 60.272V71H78.2583V60.272H76.2583ZM77.2583 70H73.9823V72H77.2583V70ZM74.9823 71V51.272H72.9823V71H74.9823ZM73.9823 52.272H77.2583V50.272H73.9823V52.272ZM76.2583 51.272V54.476H78.2583V51.272H76.2583ZM94.288 53.972V52.972H93.288V53.972H94.288ZM94.9 67.652L94.1929 68.3591L94.2036 68.3698L94.2146 68.3802L94.9 67.652ZM99.436 68.228H100.436V67.228H99.436V68.228ZM99.436 71V72H100.436V71H99.436ZM91.012 53.972H92.012V52.972H91.012V53.972ZM88.456 53.972H87.456V54.972H88.456V53.972ZM88.456 51.272V50.272H87.456V51.272H88.456ZM91.012 51.272V52.272H92.012V51.272H91.012ZM91.012 46.304V45.304H90.012V46.304H91.012ZM94.288 46.304H95.288V45.304H94.288V46.304ZM94.288 51.272H93.288V52.272H94.288V51.272ZM99.436 51.272H100.436V50.272H99.436V51.272ZM99.436 53.972V54.972H100.436V53.972H99.436ZM93.288 53.972V65.6H95.288V53.972H93.288ZM93.288 65.6C93.288 66.6586 93.5056 67.6718 94.1929 68.3591L95.6071 66.9449C95.4784 66.8162 95.288 66.4614 95.288 65.6H93.288ZM94.2146 68.3802C94.9089 69.0336 95.9456 69.228 97.024 69.228V67.228C96.0864 67.228 95.7071 67.0384 95.5854 66.9238L94.2146 68.3802ZM97.024 69.228H99.436V67.228H97.024V69.228ZM98.436 68.228V71H100.436V68.228H98.436ZM99.436 70H96.484V72H99.436V70ZM96.484 70C94.7947 70 93.7142 69.6093 93.0575 69.0045L91.7025 70.4755C92.8699 71.5507 94.5253 72 96.484 72V70ZM93.0575 69.0045C92.4409 68.4365 92.012 67.392 92.012 65.6H90.012C90.012 67.648 90.4951 69.3635 91.7025 70.4755L93.0575 69.0045ZM92.012 65.6V53.972H90.012V65.6H92.012ZM91.012 52.972H88.456V54.972H91.012V52.972ZM89.456 53.972V51.272H87.456V53.972H89.456ZM88.456 52.272H91.012V50.272H88.456V52.272ZM92.012 51.272V46.304H90.012V51.272H92.012ZM91.012 47.304H94.288V45.304H91.012V47.304ZM93.288 46.304V51.272H95.288V46.304H93.288ZM94.288 52.272H99.436V50.272H94.288V52.272ZM98.436 51.272V53.972H100.436V51.272H98.436ZM99.436 52.972H94.288V54.972H99.436V52.972ZM124.177 62.36V63.36H125.079L125.172 62.4629L124.177 62.36ZM108.409 62.36V61.36H107.346L107.411 62.4216L108.409 62.36ZM110.389 66.932L109.712 67.6679L109.72 67.675L109.728 67.6818L110.389 66.932ZM118.345 67.58L118.915 68.4022L118.919 68.3992L118.345 67.58ZM120.361 64.916V63.916H119.65L119.417 64.5875L120.361 64.916ZM123.889 64.916L124.853 65.1843L125.206 63.916H123.889V64.916ZM120.721 69.56L121.317 70.3629L121.325 70.3571L120.721 69.56ZM109.777 70.064L109.28 70.9314L109.286 70.9348L109.777 70.064ZM106.321 66.5L105.441 66.9741L105.444 66.9798L106.321 66.5ZM106.285 55.736L107.168 56.2052L107.168 56.2052L106.285 55.736ZM109.705 52.208L110.192 53.0815L110.197 53.0788L109.705 52.208ZM119.785 52.172L119.292 53.042L119.292 53.042L119.785 52.172ZM123.097 55.556L122.215 56.0266L122.22 56.0354L122.225 56.0442L123.097 55.556ZM120.901 59.696V60.696H121.901V59.696H120.901ZM120.073 56.492L119.218 57.0098L119.224 57.0199L120.073 56.492ZM117.805 54.44L117.349 55.3298L117.362 55.3368L117.376 55.3433L117.805 54.44ZM110.425 55.304L109.757 54.5599L109.75 54.5668L110.425 55.304ZM108.445 59.696L107.449 59.6066L107.352 60.696H108.445V59.696ZM123.285 60.38C123.285 60.9658 123.251 61.5913 123.183 62.2571L125.172 62.4629C125.247 61.7367 125.285 61.0422 125.285 60.38H123.285ZM124.177 61.36H108.409V63.36H124.177V61.36ZM107.411 62.4216C107.544 64.57 108.286 66.3559 109.712 67.6679L111.066 66.1961C110.092 65.3001 109.515 64.038 109.407 62.2984L107.411 62.4216ZM109.728 67.6818C111.146 68.933 112.861 69.552 114.817 69.552V67.552C113.317 67.552 112.081 67.091 111.051 66.1822L109.728 67.6818ZM114.817 69.552C116.387 69.552 117.774 69.1915 118.914 68.4022L117.776 66.7578C117.044 67.2645 116.08 67.552 114.817 67.552V69.552ZM118.919 68.3992C120.05 67.607 120.853 66.5476 121.306 65.2445L119.417 64.5875C119.102 65.4924 118.56 66.209 117.772 66.7608L118.919 68.3992ZM120.361 65.916H123.889V63.916H120.361V65.916ZM122.926 64.6477C122.457 66.3307 121.529 67.6937 120.117 68.7629L121.325 70.3571C123.082 69.0263 124.265 67.2933 124.853 65.1843L122.926 64.6477ZM120.125 68.7571C118.745 69.7819 116.997 70.324 114.817 70.324V72.324C117.342 72.324 119.53 71.6901 121.317 70.3629L120.125 68.7571ZM114.817 70.324C113.101 70.324 111.593 69.9406 110.269 69.1932L109.286 70.9348C110.938 71.8674 112.79 72.324 114.817 72.324V70.324ZM110.275 69.1966C108.977 68.4519 107.954 67.4008 107.199 66.0202L105.444 66.9798C106.369 68.6712 107.65 69.9961 109.28 70.9314L110.275 69.1966ZM107.202 66.0259C106.451 64.6323 106.061 62.9998 106.061 61.1H104.061C104.061 63.2802 104.511 65.2477 105.441 66.9741L107.202 66.0259ZM106.061 61.1C106.061 59.1953 106.441 57.5736 107.168 56.2052L105.402 55.2668C104.497 56.9704 104.061 58.9247 104.061 61.1H106.061ZM107.168 56.2052C107.898 54.8325 108.903 53.8 110.192 53.0815L109.218 51.3345C107.58 52.248 106.305 53.5675 105.402 55.2668L107.168 56.2052ZM110.197 53.0788C111.517 52.3336 113.048 51.948 114.817 51.948V49.948C112.747 49.948 110.87 50.4024 109.214 51.3372L110.197 53.0788ZM114.817 51.948C116.54 51.948 118.021 52.3219 119.292 53.042L120.278 51.302C118.669 50.3901 116.839 49.948 114.817 49.948V51.948ZM119.292 53.042C120.57 53.7659 121.538 54.7565 122.215 56.0266L123.98 55.0854C123.121 53.4755 121.881 52.2101 120.278 51.302L119.292 53.042ZM122.225 56.0442C122.924 57.2951 123.285 58.7318 123.285 60.38H125.285C125.285 58.4282 124.854 56.6489 123.97 55.0678L122.225 56.0442ZM121.901 59.696C121.901 58.2979 121.591 57.0389 120.923 55.9641L119.224 57.0199C119.66 57.7211 119.901 58.5981 119.901 59.696H121.901ZM120.929 55.9742C120.276 54.8953 119.372 54.077 118.234 53.5367L117.376 55.3433C118.159 55.715 118.767 56.2647 119.218 57.0098L120.929 55.9742ZM118.262 53.5502C117.171 52.9911 115.969 52.72 114.673 52.72V54.72C115.682 54.72 116.567 54.9289 117.349 55.3298L118.262 53.5502ZM114.673 52.72C112.784 52.72 111.126 53.3307 109.757 54.56L111.093 56.048C112.077 55.1653 113.251 54.72 114.673 54.72V52.72ZM109.75 54.5668C108.378 55.8241 107.635 57.5394 107.449 59.6066L109.441 59.7854C109.592 58.1086 110.169 56.8959 111.101 56.0412L109.75 54.5668ZM108.445 60.696H120.901V58.696H108.445V60.696ZM131.489 55.772L132.37 56.2469L132.373 56.2412L131.489 55.772ZM134.837 52.208L134.334 51.3442L134.327 51.3479L134.837 52.208ZM143.945 52.028L143.467 52.906L143.479 52.9126L143.945 52.028ZM146.969 54.8L146.114 55.3171L147.969 58.389V54.8H146.969ZM146.969 44.36V43.36H145.969V44.36H146.969ZM150.282 44.36H151.282V43.36H150.282V44.36ZM150.282 71V72H151.282V71H150.282ZM146.969 71H145.969V72H146.969V71ZM146.969 67.292H147.969L146.094 66.8094L146.969 67.292ZM144.089 70.208L144.594 71.0713L144.606 71.0641L144.089 70.208ZM134.837 70.028L134.317 70.8817L134.323 70.8855L134.837 70.028ZM131.489 66.392L132.376 65.9285L132.376 65.9285L131.489 66.392ZM143.622 54.692L143.11 55.5513L143.122 55.5584L143.134 55.5652L143.622 54.692ZM136.925 54.656L136.429 53.7878L136.429 53.7878L136.925 54.656ZM134.513 57.176L135.392 57.6535L135.392 57.6535L134.513 57.176ZM134.513 65.024L133.631 65.4936L133.635 65.5015L134.513 65.024ZM136.925 67.58L136.414 68.4393L136.422 68.4438L136.429 68.4482L136.925 67.58ZM143.622 67.58L144.118 68.4483L144.124 68.4445L143.622 67.58ZM146.069 65.024L146.948 65.5015L146.952 65.4936L146.069 65.024ZM131.265 61.064C131.265 59.185 131.645 57.5896 132.37 56.2469L130.609 55.2971C129.702 56.9784 129.265 58.911 129.265 61.064H131.265ZM132.373 56.2412C133.108 54.8577 134.099 53.8091 135.348 53.0681L134.327 51.3479C132.744 52.2869 131.503 53.6143 130.606 55.3028L132.373 56.2412ZM135.341 53.0718C136.618 52.3268 138.051 51.948 139.661 51.948V49.948C137.72 49.948 135.937 50.4092 134.334 51.3442L135.341 53.0718ZM139.661 51.948C141.034 51.948 142.297 52.2678 143.467 52.9059L144.424 51.1501C142.954 50.3482 141.361 49.948 139.661 49.948V51.948ZM143.479 52.9126C144.656 53.5333 145.522 54.3373 146.114 55.3171L147.825 54.2829C147.025 52.9587 145.875 51.9147 144.412 51.1434L143.479 52.9126ZM147.969 54.8V44.36H145.969V54.8H147.969ZM146.969 45.36H150.282V43.36H146.969V45.36ZM149.282 44.36V71H151.282V44.36H149.282ZM150.282 70H146.969V72H150.282V70ZM147.969 71V67.292H145.969V71H147.969ZM146.094 66.8094C145.539 67.8155 144.711 68.6648 143.573 69.3519L144.606 71.0641C146.012 70.2152 147.104 69.1205 147.845 67.7746L146.094 66.8094ZM143.585 69.3448C142.488 69.986 141.18 70.324 139.625 70.324V72.324C141.479 72.324 143.147 71.918 144.594 71.0712L143.585 69.3448ZM139.625 70.324C138.047 70.324 136.63 69.9371 135.352 69.1705L134.323 70.8855C135.925 71.8469 137.7 72.324 139.625 72.324V70.324ZM135.358 69.1744C134.107 68.4107 133.113 67.338 132.376 65.9285L130.603 66.8555C131.498 68.566 132.736 69.9173 134.317 70.8816L135.358 69.1744ZM132.376 65.9285C131.644 64.5294 131.265 62.916 131.265 61.064H129.265C129.265 63.196 129.703 65.1346 130.603 66.8555L132.376 65.9285ZM147.969 61.1C147.969 59.4759 147.641 58.0099 146.948 56.7345L145.191 57.6895C145.698 58.6221 145.969 59.7481 145.969 61.1H147.969ZM146.948 56.7345C146.264 55.4752 145.317 54.4929 144.109 53.8188L143.134 55.5652C143.99 56.0431 144.675 56.7408 145.191 57.6895L146.948 56.7345ZM144.133 53.8327C142.963 53.1365 141.669 52.792 140.273 52.792V54.792C141.326 54.792 142.264 55.0475 143.11 55.5513L144.133 53.8327ZM140.273 52.792C138.885 52.792 137.597 53.1207 136.429 53.7878L137.422 55.5242C138.27 55.0393 139.214 54.792 140.273 54.792V52.792ZM136.429 53.7878C135.247 54.4635 134.316 55.4452 133.635 56.6985L135.392 57.6535C135.911 56.6988 136.588 56.0005 137.422 55.5242L136.429 53.7878ZM133.635 56.6985C132.942 57.9739 132.613 59.4399 132.613 61.064H134.613C134.613 59.7121 134.885 58.5861 135.392 57.6535L133.635 56.6985ZM132.613 61.064C132.613 62.7098 132.941 64.1967 133.631 65.4936L135.396 64.5544C134.886 63.5953 134.613 62.4422 134.613 61.064H132.613ZM133.635 65.5015C134.314 66.7518 135.241 67.7408 136.414 68.4393L137.437 66.7207C136.594 66.2192 135.913 65.5042 135.392 64.5465L133.635 65.5015ZM136.429 68.4482C137.597 69.1153 138.885 69.444 140.273 69.444V67.444C139.214 67.444 138.27 67.1967 137.422 66.7118L136.429 68.4482ZM140.273 69.444C141.662 69.444 142.95 69.1153 144.118 68.4482L143.125 66.7118C142.277 67.1967 141.333 67.444 140.273 67.444V69.444ZM144.124 68.4445C145.323 67.7475 146.265 66.7577 146.948 65.5015L145.191 64.5465C144.674 65.4983 143.984 66.2125 143.119 66.7155L144.124 68.4445ZM146.952 65.4936C147.641 64.1989 147.969 62.7247 147.969 61.1H145.969C145.969 62.4513 145.698 63.5931 145.187 64.5544L146.952 65.4936ZM202.711 45.908L203.672 46.1864L204.042 44.908H202.711V45.908ZM195.439 71V72H196.191L196.4 71.2784L195.439 71ZM191.767 71L190.807 71.2774L191.015 72H191.767V71ZM185.935 50.804L186.896 50.5266L185.953 47.2599L184.977 50.5171L185.935 50.804ZM179.887 71L179.897 72L180.634 71.9927L180.845 71.2869L179.887 71ZM176.251 71.036L175.288 71.3051L175.494 72.0435L176.261 72.036L176.251 71.036ZM169.231 45.908V44.908H167.914L168.268 46.1771L169.231 45.908ZM172.723 45.908L173.692 45.6589L173.499 44.908H172.723V45.908ZM178.195 67.184L177.227 67.4331L178.147 71.011L179.157 67.4574L178.195 67.184ZM184.243 45.908V44.908H183.488L183.281 45.6346L184.243 45.908ZM187.915 45.908L188.88 45.6459L188.68 44.908H187.915V45.908ZM193.675 67.112L192.71 67.3741L193.697 71.0062L194.643 67.3634L193.675 67.112ZM199.183 45.908V44.908H198.41L198.215 45.6566L199.183 45.908ZM201.751 45.6296L194.479 70.7216L196.4 71.2784L203.672 46.1864L201.751 45.6296ZM195.439 70H191.767V72H195.439V70ZM192.728 70.7226L186.896 50.5266L184.975 51.0814L190.807 71.2774L192.728 70.7226ZM184.977 50.5171L178.929 70.7131L180.845 71.2869L186.893 51.0909L184.977 50.5171ZM179.877 70L176.241 70.036L176.261 72.036L179.897 72L179.877 70ZM177.214 70.7669L170.194 45.6389L168.268 46.1771L175.288 71.3051L177.214 70.7669ZM169.231 46.908H172.723V44.908H169.231V46.908ZM171.755 46.1571L177.227 67.4331L179.164 66.9349L173.692 45.6589L171.755 46.1571ZM179.157 67.4574L185.205 46.1814L183.281 45.6346L177.233 66.9106L179.157 67.4574ZM184.243 46.908H187.915V44.908H184.243V46.908ZM186.95 46.1701L192.71 67.3741L194.64 66.8499L188.88 45.6459L186.95 46.1701ZM194.643 67.3634L200.151 46.1594L198.215 45.6566L192.707 66.8606L194.643 67.3634ZM199.183 46.908H202.711V44.908H199.183V46.908ZM209.284 47.42L209.991 46.7129L209.991 46.7129L209.284 47.42ZM209.284 44.252L209.991 44.9591L209.991 44.9591L209.284 44.252ZM212.38 44.252L211.653 44.9386L211.663 44.949L211.673 44.9591L212.38 44.252ZM212.38 47.42L211.673 46.7129L211.663 46.723L211.653 46.7334L212.38 47.42ZM212.452 51.272H213.452V50.272H212.452V51.272ZM212.452 71V72H213.452V71H212.452ZM209.176 71H208.176V72H209.176V71ZM209.176 51.272V50.272H208.176V51.272H209.176ZM210.868 47.068C210.503 47.068 210.231 46.9529 209.991 46.7129L208.577 48.1271C209.201 48.7511 209.986 49.068 210.868 49.068V47.068ZM209.991 46.7129C209.751 46.4729 209.636 46.2011 209.636 45.836H207.636C207.636 46.7189 207.953 47.5031 208.577 48.1271L209.991 46.7129ZM209.636 45.836C209.636 45.4709 209.751 45.1991 209.991 44.9591L208.577 43.5449C207.953 44.1689 207.636 44.9531 207.636 45.836H209.636ZM209.991 44.9591C210.231 44.7191 210.503 44.604 210.868 44.604V42.604C209.986 42.604 209.201 42.9209 208.577 43.5449L209.991 44.9591ZM210.868 44.604C211.196 44.604 211.436 44.7088 211.653 44.9386L213.107 43.5654C212.508 42.9312 211.74 42.604 210.868 42.604V44.604ZM211.673 44.9591C211.913 45.1991 212.028 45.4709 212.028 45.836H214.028C214.028 44.9531 213.711 44.1689 213.087 43.5449L211.673 44.9591ZM212.028 45.836C212.028 46.2011 211.913 46.4729 211.673 46.7129L213.087 48.1271C213.711 47.5031 214.028 46.7189 214.028 45.836H212.028ZM211.653 46.7334C211.436 46.9632 211.196 47.068 210.868 47.068V49.068C211.74 49.068 212.508 48.7408 213.107 48.1066L211.653 46.7334ZM211.452 51.272V71H213.452V51.272H211.452ZM212.452 70H209.176V72H212.452V70ZM210.176 71V51.272H208.176V71H210.176ZM209.176 52.272H212.452V50.272H209.176V52.272ZM224.912 53.972V52.972H223.912V53.972H224.912ZM225.524 67.652L224.817 68.3591L224.827 68.3698L224.838 68.3802L225.524 67.652ZM230.06 68.228H231.06V67.228H230.06V68.228ZM230.06 71V72H231.06V71H230.06ZM221.636 53.972H222.636V52.972H221.636V53.972ZM219.08 53.972H218.08V54.972H219.08V53.972ZM219.08 51.272V50.272H218.08V51.272H219.08ZM221.636 51.272V52.272H222.636V51.272H221.636ZM221.636 46.304V45.304H220.636V46.304H221.636ZM224.912 46.304H225.912V45.304H224.912V46.304ZM224.912 51.272H223.912V52.272H224.912V51.272ZM230.06 51.272H231.06V50.272H230.06V51.272ZM230.06 53.972V54.972H231.06V53.972H230.06ZM223.912 53.972V65.6H225.912V53.972H223.912ZM223.912 65.6C223.912 66.6586 224.129 67.6718 224.817 68.3591L226.231 66.9449C226.102 66.8162 225.912 66.4614 225.912 65.6H223.912ZM224.838 68.3802C225.533 69.0336 226.569 69.228 227.648 69.228V67.228C226.71 67.228 226.331 67.0384 226.209 66.9238L224.838 68.3802ZM227.648 69.228H230.06V67.228H227.648V69.228ZM229.06 68.228V71H231.06V68.228H229.06ZM230.06 70H227.108V72H230.06V70ZM227.108 70C225.418 70 224.338 69.6093 223.681 69.0045L222.326 70.4755C223.494 71.5507 225.149 72 227.108 72V70ZM223.681 69.0045C223.065 68.4365 222.636 67.392 222.636 65.6H220.636C220.636 67.648 221.119 69.3635 222.326 70.4755L223.681 69.0045ZM222.636 65.6V53.972H220.636V65.6H222.636ZM221.636 52.972H219.08V54.972H221.636V52.972ZM220.08 53.972V51.272H218.08V53.972H220.08ZM219.08 52.272H221.636V50.272H219.08V52.272ZM222.636 51.272V46.304H220.636V51.272H222.636ZM221.636 47.304H224.912V45.304H221.636V47.304ZM223.912 46.304V51.272H225.912V46.304H223.912ZM224.912 52.272H230.06V50.272H224.912V52.272ZM229.06 51.272V53.972H231.06V51.272H229.06ZM230.06 52.972H224.912V54.972H230.06V52.972ZM250.733 51.884L250.258 52.7639L250.265 52.7676L250.272 52.7712L250.733 51.884ZM253.541 54.728L252.657 55.1951L252.66 55.2016L252.664 55.208L253.541 54.728ZM254.585 71V72H255.585V71H254.585ZM251.345 71H250.345V72H251.345V71ZM249.869 55.34L249.137 56.0218L249.145 56.0301L249.869 55.34ZM241.697 55.376L240.974 54.6851L240.966 54.6937L241.697 55.376ZM240.185 71V72H241.185V71H240.185ZM236.909 71H235.909V72H236.909V71ZM236.909 44.36V43.36H235.909V44.36H236.909ZM240.185 44.36H241.185V43.36H240.185V44.36ZM240.185 54.08H239.185V57.4848L241.026 54.6208L240.185 54.08ZM242.849 51.74L242.417 50.8382L242.409 50.8418L242.849 51.74ZM246.701 51.912C248.039 51.912 249.217 52.2018 250.258 52.7639L251.208 51.0041C249.849 50.2702 248.339 49.912 246.701 49.912V51.912ZM250.272 52.7712C251.28 53.2953 252.073 54.0908 252.657 55.1951L254.425 54.2609C253.665 52.8212 252.587 51.7207 251.194 50.9968L250.272 52.7712ZM252.664 55.208C253.261 56.2996 253.585 57.6733 253.585 59.372H255.585C255.585 57.4227 255.213 55.7004 254.418 54.248L252.664 55.208ZM253.585 59.372V71H255.585V59.372H253.585ZM254.585 70H251.345V72H254.585V70ZM252.345 71V59.84H250.345V71H252.345ZM252.345 59.84C252.345 57.714 251.812 55.9289 250.593 54.6499L249.145 56.0301C249.894 56.8151 250.345 58.03 250.345 59.84H252.345ZM250.601 54.6583C249.393 53.3626 247.764 52.756 245.837 52.756V54.756C247.318 54.756 248.377 55.2054 249.137 56.0217L250.601 54.6583ZM245.837 52.756C243.883 52.756 242.225 53.3763 240.974 54.6851L242.42 56.0669C243.233 55.2157 244.335 54.756 245.837 54.756V52.756ZM240.966 54.6937C239.727 56.0215 239.185 57.8758 239.185 60.092H241.185C241.185 58.1802 241.651 56.8905 242.428 56.0583L240.966 54.6937ZM239.185 60.092V71H241.185V60.092H239.185ZM240.185 70H236.909V72H240.185V70ZM237.909 71V44.36H235.909V71H237.909ZM236.909 45.36H240.185V43.36H236.909V45.36ZM239.185 44.36V54.08H241.185V44.36H239.185ZM241.026 54.6208C241.571 53.7739 242.316 53.114 243.289 52.6382L242.409 50.8418C241.126 51.47 240.095 52.3701 239.344 53.5392L241.026 54.6208ZM243.281 52.6418C244.284 52.1612 245.418 51.912 246.701 51.912V49.912C245.152 49.912 243.718 50.2148 242.417 50.8382L243.281 52.6418ZM27.508 88.908L28.4436 89.261L28.9542 87.908H27.508V88.908ZM18.04 114V115H18.7315L18.9756 114.353L18.04 114ZM14.26 114L13.3244 114.353L13.5685 115H14.26V114ZM4.792 88.908V87.908H3.34585L3.85639 89.261L4.792 88.908ZM8.284 88.908L9.22357 88.5656L8.98393 87.908H8.284V88.908ZM16.168 110.544L15.2284 110.886L16.168 113.465L17.1076 110.886L16.168 110.544ZM24.052 88.908V87.908H23.3521L23.1124 88.5656L24.052 88.908ZM26.5724 88.555L17.1044 113.647L18.9756 114.353L28.4436 89.261L26.5724 88.555ZM18.04 113H14.26V115H18.04V113ZM15.1956 113.647L5.72761 88.555L3.85639 89.261L13.3244 114.353L15.1956 113.647ZM4.792 89.908H8.284V87.908H4.792V89.908ZM7.34444 89.2504L15.2284 110.886L17.1076 110.202L9.22357 88.5656L7.34444 89.2504ZM17.1076 110.886L24.9916 89.2504L23.1124 88.5656L15.2284 110.202L17.1076 110.886ZM24.052 89.908H27.508V87.908H24.052V89.908ZM48.2721 114L47.408 114.503L47.6973 115H48.2721V114ZM42.2961 103.74L43.1602 103.237L42.8709 102.74H42.2961V103.74ZM38.3361 103.74V102.74H37.3361V103.74H38.3361ZM38.3361 114V115H39.3361V114H38.3361ZM35.0601 114H34.0601V115H35.0601V114ZM35.0601 88.908V87.908H34.0601V88.908H35.0601ZM47.9481 89.88L47.5009 90.7745L47.5075 90.7777L47.9481 89.88ZM50.3601 100.86L49.5653 100.253L49.5584 100.262L50.3601 100.86ZM45.8961 103.488L45.6842 102.511L44.3217 102.806L45.0384 104.002L45.8961 103.488ZM52.1961 114V115H53.9613L53.0539 113.486L52.1961 114ZM38.3361 101.112H37.3361V102.112H38.3361V101.112ZM47.1561 99.816L47.8535 100.533L47.8632 100.523L47.1561 99.816ZM47.1561 92.832L46.4694 93.5591L46.4795 93.5683L47.1561 92.832ZM38.3361 91.608V90.608H37.3361V91.608H38.3361ZM49.1362 113.497L43.1602 103.237L41.432 104.243L47.408 114.503L49.1362 113.497ZM42.2961 102.74H38.3361V104.74H42.2961V102.74ZM37.3361 103.74V114H39.3361V103.74H37.3361ZM38.3361 113H35.0601V115H38.3361V113ZM36.0601 114V88.908H34.0601V114H36.0601ZM35.0601 89.908H43.1601V87.908H35.0601V89.908ZM43.1601 89.908C44.947 89.908 46.3798 90.2139 47.5009 90.7744L48.3953 88.9856C46.9244 88.2501 45.1653 87.908 43.1601 87.908V89.908ZM47.5075 90.7777C48.6784 91.3525 49.503 92.1033 50.0377 93.0142L51.7625 92.0018C51.0012 90.7047 49.8578 89.7035 48.3888 88.9823L47.5075 90.7777ZM50.0377 93.0142C50.5863 93.9488 50.8721 95.0306 50.8721 96.288H52.8721C52.8721 94.7134 52.51 93.2752 51.7625 92.0018L50.0377 93.0142ZM50.8721 96.288C50.8721 97.8062 50.4346 99.1148 49.5654 100.253L51.1549 101.467C52.3017 99.9652 52.8721 98.2258 52.8721 96.288H50.8721ZM49.5584 100.262C48.7508 101.346 47.4985 102.117 45.6842 102.511L46.1081 104.465C48.2777 103.995 50.0015 103.014 51.1619 101.458L49.5584 100.262ZM45.0384 104.002L51.3384 114.514L53.0539 113.486L46.7539 102.974L45.0384 104.002ZM52.1961 113H48.2721V115H52.1961V113ZM38.3361 102.112H43.1601V100.112H38.3361V102.112ZM43.1601 102.112C45.0835 102.112 46.711 101.644 47.8535 100.533L46.4588 99.0993C45.8253 99.7156 44.7887 100.112 43.1601 100.112V102.112ZM47.8632 100.523C48.9699 99.4165 49.4881 97.9697 49.4881 96.288H47.4881C47.4881 97.5343 47.1184 98.4395 46.449 99.1089L47.8632 100.523ZM49.4881 96.288C49.4881 94.5905 48.9735 93.1439 47.8327 92.0957L46.4795 93.5683C47.1147 94.1521 47.4881 95.0095 47.4881 96.288H49.4881ZM47.8427 92.105C46.7172 91.0419 45.0872 90.608 43.1601 90.608V92.608C44.833 92.608 45.8671 92.9901 46.4695 93.559L47.8427 92.105ZM43.1601 90.608H38.3361V92.608H43.1601V90.608ZM37.3361 91.608V101.112H39.3361V91.608H37.3361ZM74.9121 94.848L75.7817 95.3418L75.7843 95.3373L74.9121 94.848ZM79.4121 90.24L78.9136 89.3731L78.9089 89.3758L79.4121 90.24ZM92.9481 90.564L93.4914 89.7244L93.4914 89.7244L92.9481 90.564ZM97.4121 96.18V97.18H98.8702L98.345 95.8198L97.4121 96.18ZM93.4881 96.18L92.5797 96.5981L92.8476 97.18H93.4881V96.18ZM90.4641 92.688L89.9313 93.5343L89.9383 93.5386L90.4641 92.688ZM81.0681 92.688L81.5738 93.5507L81.5738 93.5507L81.0681 92.688ZM77.7921 96.18L78.6749 96.6499L78.678 96.644L77.7921 96.18ZM77.7921 106.692L76.9063 107.156L76.9094 107.162L77.7921 106.692ZM81.0681 110.148L81.5738 109.285L81.5738 109.285L81.0681 110.148ZM90.4641 110.184L90.9856 111.037L90.9899 111.035L90.4641 110.184ZM93.4881 106.692V105.692H92.8476L92.5797 106.274L93.4881 106.692ZM97.4121 106.692L98.3438 107.055L98.8755 105.692H97.4121V106.692ZM92.9481 112.272L93.4844 113.116L93.4914 113.112L92.9481 112.272ZM79.4121 112.596L78.9089 113.46L78.9154 113.464L78.9219 113.468L79.4121 112.596ZM74.9121 108.024L75.7817 107.53L74.9121 108.024ZM74.2561 101.436C74.2561 99.1442 74.7711 97.1212 75.7817 95.3418L74.0426 94.3542C72.8451 96.4628 72.2561 98.8318 72.2561 101.436H74.2561ZM75.7843 95.3373C76.8036 93.5203 78.1781 92.1157 79.9153 91.1042L78.9089 89.3758C76.8542 90.5723 75.2287 92.2397 74.04 94.3587L75.7843 95.3373ZM79.9106 91.1069C81.6711 90.0946 83.6218 89.584 85.7841 89.584V87.584C83.2905 87.584 80.9932 88.1774 78.9137 89.3731L79.9106 91.1069ZM85.7841 89.584C88.3524 89.584 90.5465 90.2011 92.4049 91.4036L93.4914 89.7244C91.2697 88.2869 88.6878 87.584 85.7841 87.584V89.584ZM92.4049 91.4036C94.2551 92.6008 95.6137 94.2986 96.4793 96.5402L98.345 95.8198C97.3386 93.2134 95.7212 91.1672 93.4914 89.7244L92.4049 91.4036ZM97.4121 95.18H93.4881V97.18H97.4121V95.18ZM94.3965 95.7619C93.6245 94.0848 92.4895 92.7644 90.9899 91.8374L89.9383 93.5386C91.0787 94.2436 91.9597 95.2512 92.5797 96.5981L94.3965 95.7619ZM90.9969 91.8418C89.5131 90.9075 87.7603 90.464 85.7841 90.464V92.464C87.456 92.464 88.8231 92.8365 89.9313 93.5342L90.9969 91.8418ZM85.7841 90.464C83.8701 90.464 82.1208 90.9118 80.5624 91.8253L81.5738 93.5507C82.7994 92.8322 84.1942 92.464 85.7841 92.464V90.464ZM80.5624 91.8253C78.9994 92.7416 77.7799 94.0482 76.9063 95.716L78.678 96.644C79.3883 95.2878 80.3529 94.2664 81.5738 93.5507L80.5624 91.8253ZM76.9094 95.7101C76.0267 97.3686 75.6041 99.2881 75.6041 101.436H77.6041C77.6041 99.5519 77.9736 97.9674 78.6749 96.6498L76.9094 95.7101ZM75.6041 101.436C75.6041 103.563 76.0277 105.479 76.9063 107.156L78.678 106.228C77.9726 104.881 77.6041 103.293 77.6041 101.436H75.6041ZM76.9094 107.162C77.7842 108.806 79.0035 110.097 80.5624 111.011L81.5738 109.285C80.3487 108.567 79.384 107.554 78.6749 106.222L76.9094 107.162ZM80.5624 111.011C82.1208 111.924 83.8701 112.372 85.7841 112.372V110.372C84.1942 110.372 82.7994 110.004 81.5738 109.285L80.5624 111.011ZM85.7841 112.372C87.7549 112.372 89.5036 111.943 90.9856 111.037L89.9427 109.331C88.8326 110.009 87.4613 110.372 85.7841 110.372V112.372ZM90.9899 111.035C92.4895 110.108 93.6245 108.787 94.3965 107.11L92.5797 106.274C91.9597 107.621 91.0787 108.628 89.9383 109.333L90.9899 111.035ZM93.4881 107.692H97.4121V105.692H93.4881V107.692ZM96.4805 106.329C95.6159 108.546 94.2577 110.234 92.4049 111.432L93.4914 113.112C95.7186 111.67 97.3364 109.638 98.3438 107.055L96.4805 106.329ZM92.4119 111.428C90.5527 112.609 88.356 113.216 85.7841 113.216V115.216C88.6843 115.216 91.2636 114.527 93.4844 113.116L92.4119 111.428ZM85.7841 113.216C83.6178 113.216 81.6641 112.715 79.9024 111.724L78.9219 113.468C81.0001 114.637 83.2945 115.216 85.7841 115.216V113.216ZM79.9153 111.732C78.175 110.718 76.8002 109.324 75.7817 107.53L74.0426 108.518C75.2321 110.612 76.8572 112.266 78.9089 113.46L79.9153 111.732ZM75.7817 107.53C74.7711 105.751 74.2561 103.728 74.2561 101.436H72.2561C72.2561 104.04 72.8451 106.409 74.0426 108.518L75.7817 107.53ZM109.525 97.476H108.525L110.415 97.9308L109.525 97.476ZM111.973 94.848L111.472 93.9821L111.464 93.9871L111.973 94.848ZM115.897 93.912H116.897V92.912H115.897V93.912ZM115.897 97.296V98.296H116.897V97.296H115.897ZM109.525 114V115H110.525V114H109.525ZM106.249 114H105.249V115H106.249V114ZM106.249 94.272V93.272H105.249V94.272H106.249ZM109.525 94.272H110.525V93.272H109.525V94.272ZM110.415 97.9308C110.908 96.9658 111.594 96.2332 112.481 95.7089L111.464 93.9871C110.239 94.7108 109.293 95.7302 108.634 97.0212L110.415 97.9308ZM112.473 95.7139C113.369 95.1959 114.496 94.912 115.897 94.912V92.912C114.225 92.912 112.736 93.2521 111.472 93.9821L112.473 95.7139ZM114.897 93.912V97.296H116.897V93.912H114.897ZM115.897 96.296H115.033V98.296H115.897V96.296ZM115.033 96.296C113.021 96.296 111.334 96.8455 110.166 98.1123C109.013 99.3636 108.525 101.145 108.525 103.272H110.525C110.525 101.415 110.954 100.208 111.637 99.4677C112.305 98.7425 113.373 98.296 115.033 98.296V96.296ZM108.525 103.272V114H110.525V103.272H108.525ZM109.525 113H106.249V115H109.525V113ZM107.249 114V94.272H105.249V114H107.249ZM106.249 95.272H109.525V93.272H106.249V95.272ZM108.525 94.272V97.476H110.525V94.272H108.525ZM141.53 105.36V106.36H142.432L142.525 105.463L141.53 105.36ZM125.762 105.36V104.36H124.699L124.764 105.422L125.762 105.36ZM127.742 109.932L127.065 110.668L127.073 110.675L127.081 110.682L127.742 109.932ZM135.698 110.58L136.268 111.402L136.272 111.399L135.698 110.58ZM137.714 107.916V106.916H137.003L136.77 107.587L137.714 107.916ZM141.242 107.916L142.206 108.184L142.559 106.916H141.242V107.916ZM138.074 112.56L138.671 113.363L138.678 113.357L138.074 112.56ZM127.13 113.064L126.633 113.931L126.639 113.935L127.13 113.064ZM123.674 109.5L122.794 109.974L122.797 109.98L123.674 109.5ZM123.638 98.736L124.522 99.2052L124.522 99.2052L123.638 98.736ZM127.058 95.208L127.545 96.0815L127.55 96.0788L127.058 95.208ZM137.138 95.172L136.645 96.042L136.645 96.042L137.138 95.172ZM140.45 98.556L139.568 99.0266L139.573 99.0354L139.578 99.0442L140.45 98.556ZM138.254 102.696V103.696H139.254V102.696H138.254ZM137.426 99.492L136.571 100.01L136.577 100.02L137.426 99.492ZM135.158 97.44L134.702 98.3298L134.716 98.3368L134.729 98.3433L135.158 97.44ZM127.778 98.304L127.11 97.5599L127.103 97.5668L127.778 98.304ZM125.798 102.696L124.802 102.607L124.705 103.696H125.798V102.696ZM140.638 103.38C140.638 103.966 140.605 104.591 140.536 105.257L142.525 105.463C142.6 104.737 142.638 104.042 142.638 103.38H140.638ZM141.53 104.36H125.762V106.36H141.53V104.36ZM124.764 105.422C124.897 107.57 125.639 109.356 127.065 110.668L128.419 109.196C127.446 108.3 126.868 107.038 126.761 105.298L124.764 105.422ZM127.081 110.682C128.499 111.933 130.214 112.552 132.17 112.552V110.552C130.671 110.552 129.434 110.091 128.404 109.182L127.081 110.682ZM132.17 112.552C133.74 112.552 135.128 112.191 136.268 111.402L135.129 109.758C134.397 110.265 133.433 110.552 132.17 110.552V112.552ZM136.272 111.399C137.404 110.607 138.206 109.548 138.659 108.245L136.77 107.587C136.455 108.492 135.913 109.209 135.125 109.761L136.272 111.399ZM137.714 108.916H141.242V106.916H137.714V108.916ZM140.279 107.648C139.81 109.331 138.882 110.694 137.471 111.763L138.678 113.357C140.435 112.026 141.618 110.293 142.206 108.184L140.279 107.648ZM137.478 111.757C136.098 112.782 134.35 113.324 132.17 113.324V115.324C134.695 115.324 136.883 114.69 138.671 113.363L137.478 111.757ZM132.17 113.324C130.454 113.324 128.946 112.941 127.622 112.193L126.639 113.935C128.291 114.867 130.143 115.324 132.17 115.324V113.324ZM127.628 112.197C126.33 111.452 125.307 110.401 124.552 109.02L122.797 109.98C123.722 111.671 125.003 112.996 126.633 113.931L127.628 112.197ZM124.555 109.026C123.804 107.632 123.414 106 123.414 104.1H121.414C121.414 106.28 121.864 108.248 122.794 109.974L124.555 109.026ZM123.414 104.1C123.414 102.195 123.795 100.574 124.522 99.2052L122.755 98.2668C121.85 99.9704 121.414 101.925 121.414 104.1H123.414ZM124.522 99.2052C125.251 97.8325 126.256 96.8 127.545 96.0815L126.572 94.3345C124.933 95.248 123.658 96.5675 122.755 98.2668L124.522 99.2052ZM127.55 96.0788C128.87 95.3336 130.401 94.948 132.17 94.948V92.948C130.1 92.948 128.223 93.4024 126.567 94.3372L127.55 96.0788ZM132.17 94.948C133.893 94.948 135.375 95.3219 136.645 96.042L137.631 94.302C136.022 93.3901 134.192 92.948 132.17 92.948V94.948ZM136.645 96.042C137.923 96.7659 138.891 97.7565 139.568 99.0266L141.333 98.0854C140.474 96.4755 139.234 95.2101 137.631 94.302L136.645 96.042ZM139.578 99.0442C140.277 100.295 140.638 101.732 140.638 103.38H142.638C142.638 101.428 142.207 99.6489 141.323 98.0678L139.578 99.0442ZM139.254 102.696C139.254 101.298 138.944 100.039 138.276 98.9641L136.577 100.02C137.013 100.721 137.254 101.598 137.254 102.696H139.254ZM138.282 98.9742C137.629 97.8953 136.725 97.077 135.587 96.5367L134.729 98.3433C135.512 98.715 136.12 99.2647 136.571 100.01L138.282 98.9742ZM135.615 96.5502C134.524 95.9911 133.322 95.72 132.026 95.72V97.72C133.035 97.72 133.92 97.9289 134.702 98.3298L135.615 96.5502ZM132.026 95.72C130.137 95.72 128.479 96.3307 127.11 97.56L128.447 99.048C129.43 98.1653 130.604 97.72 132.026 97.72V95.72ZM127.103 97.5668C125.731 98.8241 124.988 100.539 124.802 102.607L126.794 102.785C126.945 101.109 127.522 99.8959 128.454 99.0412L127.103 97.5668ZM125.798 103.696H138.254V101.696H125.798V103.696ZM149.923 98.772L150.803 99.2469L150.806 99.2412L149.923 98.772ZM153.271 95.208L152.767 94.3442L152.76 94.3479L153.271 95.208ZM162.559 95.064L162.054 95.9272L162.054 95.9272L162.559 95.064ZM165.403 97.872L164.528 98.3561L166.403 97.872H165.403ZM165.403 94.272V93.272H164.403V94.272H165.403ZM168.715 94.272H169.715V93.272H168.715V94.272ZM168.715 114V115H169.715V114H168.715ZM165.403 114H164.403V115H165.403V114ZM165.403 110.328H166.403V106.51L164.531 109.838L165.403 110.328ZM162.487 113.208L162.992 114.071L162.996 114.068L162.487 113.208ZM153.271 113.028L152.75 113.882L152.75 113.882L153.271 113.028ZM149.923 109.392L150.809 108.929L150.809 108.929L149.923 109.392ZM162.055 97.692L161.543 98.5513L161.555 98.5584L161.567 98.5652L162.055 97.692ZM155.359 97.656L154.862 96.7878L154.862 96.7878L155.359 97.656ZM152.947 100.176L153.825 100.654L153.825 100.654L152.947 100.176ZM152.947 108.024L152.064 108.494L152.068 108.502L152.947 108.024ZM155.359 110.58L154.847 111.439L154.855 111.444L154.862 111.448L155.359 110.58ZM162.055 110.58L162.551 111.448L162.557 111.445L162.055 110.58ZM164.503 108.024L165.381 108.502L165.385 108.494L164.503 108.024ZM149.699 104.064C149.699 102.185 150.078 100.59 150.803 99.2469L149.043 98.2971C148.135 99.9784 147.699 101.911 147.699 104.064H149.699ZM150.806 99.2412C151.541 97.8577 152.532 96.8091 153.781 96.0681L152.76 94.3479C151.178 95.2869 149.937 96.6143 149.04 98.3028L150.806 99.2412ZM153.774 96.0718C155.054 95.3256 156.474 94.948 158.059 94.948V92.948C156.139 92.948 154.368 93.4104 152.767 94.3442L153.774 96.0718ZM158.059 94.948C159.64 94.948 160.96 95.2872 162.054 95.9272L163.064 94.2008C161.614 93.3528 159.933 92.948 158.059 92.948V94.948ZM162.054 95.9272C163.193 96.5936 164.003 97.4069 164.528 98.3561L166.278 97.3879C165.555 96.0811 164.468 95.0224 163.064 94.2008L162.054 95.9272ZM166.403 97.872V94.272H164.403V97.872H166.403ZM165.403 95.272H168.715V93.272H165.403V95.272ZM167.715 94.272V114H169.715V94.272H167.715ZM168.715 113H165.403V115H168.715V113ZM166.403 114V110.328H164.403V114H166.403ZM164.531 109.838C163.981 110.816 163.143 111.656 161.977 112.348L162.996 114.068C164.422 113.224 165.529 112.144 166.274 110.818L164.531 109.838ZM161.982 112.345C160.885 112.986 159.577 113.324 158.023 113.324V115.324C159.876 115.324 161.544 114.918 162.992 114.071L161.982 112.345ZM158.023 113.324C156.444 113.324 155.042 112.937 153.791 112.174L152.75 113.882C154.332 114.847 156.098 115.324 158.023 115.324V113.324ZM153.791 112.174C152.54 111.411 151.546 110.338 150.809 108.929L149.037 109.855C149.931 111.566 151.169 112.917 152.75 113.882L153.791 112.174ZM150.809 108.929C150.077 107.529 149.699 105.916 149.699 104.064H147.699C147.699 106.196 148.136 108.135 149.037 109.855L150.809 108.929ZM166.403 104.1C166.403 102.476 166.074 101.01 165.381 99.7345L163.624 100.69C164.131 101.622 164.403 102.748 164.403 104.1H166.403ZM165.381 99.7345C164.697 98.4752 163.75 97.4929 162.542 96.8188L161.567 98.5652C162.423 99.0431 163.108 99.7408 163.624 100.69L165.381 99.7345ZM162.566 96.8327C161.397 96.1365 160.103 95.792 158.707 95.792V97.792C159.759 97.792 160.697 98.0475 161.543 98.5513L162.566 96.8327ZM158.707 95.792C157.318 95.792 156.03 96.1207 154.862 96.7878L155.855 98.5242C156.703 98.0393 157.647 97.792 158.707 97.792V95.792ZM154.862 96.7878C153.68 97.4635 152.749 98.4452 152.068 99.6985L153.825 100.654C154.344 99.6988 155.021 99.0005 155.855 98.5242L154.862 96.7878ZM152.068 99.6985C151.375 100.974 151.047 102.44 151.047 104.064H153.047C153.047 102.712 153.318 101.586 153.825 100.654L152.068 99.6985ZM151.047 104.064C151.047 105.71 151.374 107.197 152.064 108.494L153.829 107.554C153.319 106.595 153.047 105.442 153.047 104.064H151.047ZM152.068 108.502C152.748 109.752 153.674 110.741 154.847 111.439L155.87 109.721C155.028 109.219 154.346 108.504 153.825 107.546L152.068 108.502ZM154.862 111.448C156.03 112.115 157.318 112.444 158.707 112.444V110.444C157.647 110.444 156.703 110.197 155.855 109.712L154.862 111.448ZM158.707 112.444C160.095 112.444 161.383 112.115 162.551 111.448L161.558 109.712C160.71 110.197 159.766 110.444 158.707 110.444V112.444ZM162.557 111.445C163.756 110.747 164.699 109.758 165.381 108.502L163.624 107.546C163.107 108.498 162.417 109.213 161.552 109.715L162.557 111.445ZM165.385 108.494C166.074 107.199 166.403 105.725 166.403 104.1H164.403C164.403 105.451 164.131 106.593 163.62 107.554L165.385 108.494ZM182.207 96.972V95.972H181.207V96.972H182.207ZM182.819 110.652L182.112 111.359L182.122 111.37L182.133 111.38L182.819 110.652ZM187.355 111.228H188.355V110.228H187.355V111.228ZM187.355 114V115H188.355V114H187.355ZM178.931 96.972H179.931V95.972H178.931V96.972ZM176.375 96.972H175.375V97.972H176.375V96.972ZM176.375 94.272V93.272H175.375V94.272H176.375ZM178.931 94.272V95.272H179.931V94.272H178.931ZM178.931 89.304V88.304H177.931V89.304H178.931ZM182.207 89.304H183.207V88.304H182.207V89.304ZM182.207 94.272H181.207V95.272H182.207V94.272ZM187.355 94.272H188.355V93.272H187.355V94.272ZM187.355 96.972V97.972H188.355V96.972H187.355ZM181.207 96.972V108.6H183.207V96.972H181.207ZM181.207 108.6C181.207 109.659 181.424 110.672 182.112 111.359L183.526 109.945C183.397 109.816 183.207 109.461 183.207 108.6H181.207ZM182.133 111.38C182.828 112.034 183.864 112.228 184.943 112.228V110.228C184.005 110.228 183.626 110.038 183.504 109.924L182.133 111.38ZM184.943 112.228H187.355V110.228H184.943V112.228ZM186.355 111.228V114H188.355V111.228H186.355ZM187.355 113H184.403V115H187.355V113ZM184.403 113C182.713 113 181.633 112.609 180.976 112.004L179.621 113.476C180.789 114.551 182.444 115 184.403 115V113ZM180.976 112.004C180.36 111.437 179.931 110.392 179.931 108.6H177.931C177.931 110.648 178.414 112.363 179.621 113.476L180.976 112.004ZM179.931 108.6V96.972H177.931V108.6H179.931ZM178.931 95.972H176.375V97.972H178.931V95.972ZM177.375 96.972V94.272H175.375V96.972H177.375ZM176.375 95.272H178.931V93.272H176.375V95.272ZM179.931 94.272V89.304H177.931V94.272H179.931ZM178.931 90.304H182.207V88.304H178.931V90.304ZM181.207 89.304V94.272H183.207V89.304H181.207ZM182.207 95.272H187.355V93.272H182.207V95.272ZM186.355 94.272V96.972H188.355V94.272H186.355ZM187.355 95.972H182.207V97.972H187.355V95.972ZM195.392 90.42L196.099 89.7129L196.099 89.7129L195.392 90.42ZM195.392 87.252L196.099 87.9591L196.099 87.9591L195.392 87.252ZM198.488 87.252L197.761 87.9386L197.771 87.949L197.781 87.9591L198.488 87.252ZM198.488 90.42L197.781 89.7129L197.771 89.723L197.761 89.7334L198.488 90.42ZM198.56 94.272H199.56V93.272H198.56V94.272ZM198.56 114V115H199.56V114H198.56ZM195.284 114H194.284V115H195.284V114ZM195.284 94.272V93.272H194.284V94.272H195.284ZM196.976 90.068C196.611 90.068 196.339 89.9529 196.099 89.7129L194.685 91.1271C195.309 91.7511 196.093 92.068 196.976 92.068V90.068ZM196.099 89.7129C195.859 89.4729 195.744 89.2011 195.744 88.836H193.744C193.744 89.7189 194.061 90.5031 194.685 91.1271L196.099 89.7129ZM195.744 88.836C195.744 88.4709 195.859 88.1991 196.099 87.9591L194.685 86.5449C194.061 87.1689 193.744 87.9531 193.744 88.836H195.744ZM196.099 87.9591C196.339 87.7191 196.611 87.604 196.976 87.604V85.604C196.093 85.604 195.309 85.9209 194.685 86.5449L196.099 87.9591ZM196.976 87.604C197.304 87.604 197.544 87.7088 197.761 87.9386L199.215 86.5654C198.616 85.9312 197.848 85.604 196.976 85.604V87.604ZM197.781 87.9591C198.021 88.1991 198.136 88.4709 198.136 88.836H200.136C200.136 87.9531 199.819 87.1689 199.195 86.5449L197.781 87.9591ZM198.136 88.836C198.136 89.2011 198.021 89.4729 197.781 89.7129L199.195 91.1271C199.819 90.5031 200.136 89.7189 200.136 88.836H198.136ZM197.761 89.7334C197.544 89.9632 197.304 90.068 196.976 90.068V92.068C197.848 92.068 198.616 91.7408 199.215 91.1066L197.761 89.7334ZM197.56 94.272V114H199.56V94.272H197.56ZM198.56 113H195.284V115H198.56V113ZM196.284 114V94.272H194.284V114H196.284ZM195.284 95.272H198.56V93.272H195.284V95.272ZM211.667 113.064L211.176 113.935L211.182 113.938L211.667 113.064ZM208.139 109.5L207.259 109.974L207.263 109.982L207.268 109.99L208.139 109.5ZM208.175 98.772L207.306 98.2773L207.304 98.2817L208.175 98.772ZM211.775 95.208L212.25 96.0881L212.261 96.0822L211.775 95.208ZM221.927 95.208L221.442 96.0822L221.452 96.088L221.927 95.208ZM225.491 98.736L224.62 99.2263L224.626 99.2365L225.491 98.736ZM225.455 109.5L224.592 108.995L224.59 108.999L225.455 109.5ZM221.819 113.064L222.299 113.941L222.299 113.941L221.819 113.064ZM222.503 108.132L221.641 107.626L221.637 107.633L221.633 107.64L222.503 108.132ZM220.091 97.62L219.611 98.4971L219.619 98.5015L219.627 98.5058L220.091 97.62ZM213.503 97.62L213.976 98.5012L213.984 98.4971L213.503 97.62ZM211.127 100.068L212.006 100.546L212.006 100.546L211.127 100.068ZM211.091 108.168L210.205 108.631L210.209 108.638L210.213 108.646L211.091 108.168ZM213.467 110.652L212.978 111.524L212.986 111.529L212.995 111.533L213.467 110.652ZM216.707 113.324C215.017 113.324 213.506 112.942 212.153 112.19L211.182 113.938C212.852 114.866 214.701 115.324 216.707 115.324V113.324ZM212.159 112.193C210.835 111.446 209.788 110.392 209.011 109.01L207.268 109.99C208.218 111.68 209.524 113.002 211.176 113.935L212.159 112.193ZM209.02 109.026C208.269 107.632 207.879 106 207.879 104.1H205.879C205.879 106.28 206.329 108.248 207.259 109.974L209.02 109.026ZM207.879 104.1C207.879 102.231 208.279 100.628 209.047 99.2623L207.304 98.2817C206.344 99.9878 205.879 101.937 205.879 104.1H207.879ZM209.044 99.2667C209.844 97.8619 210.911 96.8109 212.25 96.088L211.3 94.328C209.616 95.237 208.283 96.5621 207.306 98.2773L209.044 99.2667ZM212.261 96.0822C213.612 95.3314 215.135 94.948 216.851 94.948V92.948C214.824 92.948 212.962 93.4046 211.29 94.3338L212.261 96.0822ZM216.851 94.948C218.568 94.948 220.09 95.3314 221.442 96.0822L222.413 94.3338C220.74 93.4046 218.879 92.948 216.851 92.948V94.948ZM221.452 96.088C222.794 96.8118 223.846 97.8506 224.62 99.2263L226.363 98.2457C225.409 96.5494 224.085 95.2362 222.402 94.328L221.452 96.088ZM224.626 99.2365C225.413 100.599 225.823 102.209 225.823 104.1H227.823C227.823 101.911 227.346 99.9452 226.357 98.2355L224.626 99.2365ZM225.823 104.1C225.823 105.986 225.403 107.607 224.592 108.995L226.319 110.005C227.331 108.273 227.823 106.294 227.823 104.1H225.823ZM224.59 108.999C223.792 110.379 222.713 111.436 221.34 112.187L222.299 113.941C223.998 113.012 225.343 111.693 226.321 110.001L224.59 108.999ZM221.34 112.187C219.961 112.941 218.424 113.324 216.707 113.324V115.324C218.735 115.324 220.606 114.867 222.299 113.941L221.34 112.187ZM216.707 112.444C218.047 112.444 219.313 112.128 220.491 111.498L219.548 109.734C218.662 110.208 217.72 110.444 216.707 110.444V112.444ZM220.491 111.498C221.704 110.849 222.665 109.879 223.374 108.624L221.633 107.64C221.094 108.593 220.399 109.279 219.548 109.734L220.491 111.498ZM223.366 108.638C224.123 107.348 224.475 105.82 224.475 104.1H222.475C222.475 105.548 222.18 106.708 221.641 107.626L223.366 108.638ZM224.475 104.1C224.475 102.386 224.137 100.863 223.41 99.5759L221.669 100.56C222.189 101.481 222.475 102.646 222.475 104.1H224.475ZM223.41 99.5759C222.702 98.3241 221.753 97.3616 220.555 96.7342L219.627 98.5058C220.446 98.9344 221.128 99.6039 221.669 100.56L223.41 99.5759ZM220.572 96.7429C219.413 96.1083 218.155 95.792 216.815 95.792V97.792C217.828 97.792 218.754 98.0277 219.611 98.4971L220.572 96.7429ZM216.815 95.792C215.455 95.792 214.185 96.1067 213.023 96.7429L213.984 98.4971C214.838 98.0293 215.776 97.792 216.815 97.792V95.792ZM213.031 96.7388C211.854 97.3702 210.93 98.3374 210.249 99.5905L212.006 100.546C212.525 99.5906 213.185 98.9258 213.976 98.5012L213.031 96.7388ZM210.249 99.5905C209.551 100.874 209.227 102.392 209.227 104.1H211.227C211.227 102.64 211.504 101.47 212.006 100.546L210.249 99.5905ZM209.227 104.1C209.227 105.824 209.536 107.348 210.205 108.631L211.978 107.705C211.495 106.78 211.227 105.592 211.227 104.1H209.227ZM210.213 108.646C210.892 109.896 211.811 110.87 212.978 111.524L213.957 109.78C213.155 109.33 212.491 108.648 211.97 107.69L210.213 108.646ZM212.995 111.533C214.132 112.143 215.375 112.444 216.707 112.444V110.444C215.687 110.444 214.771 110.217 213.94 109.771L212.995 111.533ZM250.535 96.108L249.833 96.8209L249.839 96.8266L250.535 96.108ZM252.767 114V115H253.767V114H252.767ZM249.527 114H248.527V115H249.527V114ZM248.051 98.34L247.319 99.0218L247.327 99.0301L248.051 98.34ZM239.879 98.376L239.156 97.6851L239.148 97.6937L239.879 98.376ZM238.367 114V115H239.367V114H238.367ZM235.091 114H234.091V115H235.091V114ZM235.091 94.272V93.272H234.091V94.272H235.091ZM238.367 94.272H239.367V93.272H238.367V94.272ZM238.367 97.08H237.367V100.485L239.208 97.6208L238.367 97.08ZM240.995 94.74L240.555 93.8417L240.548 93.8456L240.995 94.74ZM244.703 94.912C246.883 94.912 248.561 95.5687 249.833 96.8208L251.236 95.3952C249.533 93.7193 247.323 92.912 244.703 92.912V94.912ZM249.839 96.8266C251.076 98.0233 251.767 99.8162 251.767 102.372H253.767C253.767 99.4558 252.97 97.0727 251.23 95.3894L249.839 96.8266ZM251.767 102.372V114H253.767V102.372H251.767ZM252.767 113H249.527V115H252.767V113ZM250.527 114V102.84H248.527V114H250.527ZM250.527 102.84C250.527 100.714 249.994 98.9289 248.774 97.6499L247.327 99.0301C248.075 99.8151 248.527 101.03 248.527 102.84H250.527ZM248.782 97.6583C247.575 96.3626 245.946 95.756 244.019 95.756V97.756C245.5 97.756 246.559 98.2054 247.319 99.0217L248.782 97.6583ZM244.019 95.756C242.064 95.756 240.406 96.3763 239.156 97.6851L240.602 99.0669C241.415 98.2157 242.517 97.756 244.019 97.756V95.756ZM239.148 97.6937C237.908 99.0215 237.367 100.876 237.367 103.092H239.367C239.367 101.18 239.833 99.8905 240.61 99.0583L239.148 97.6937ZM237.367 103.092V114H239.367V103.092H237.367ZM238.367 113H235.091V115H238.367V113ZM236.091 114V94.272H234.091V114H236.091ZM235.091 95.272H238.367V93.272H235.091V95.272ZM237.367 94.272V97.08H239.367V94.272H237.367ZM239.208 97.6208C239.756 96.7686 240.494 96.1086 241.442 95.6344L240.548 93.8456C239.288 94.4754 238.274 95.3754 237.526 96.5392L239.208 97.6208ZM241.434 95.6382C242.416 95.1578 243.5 94.912 244.703 94.912V92.912C243.217 92.912 241.83 93.2182 240.555 93.8418L241.434 95.6382Z" fill="black"/>
</g>
<defs>
<filter id="filter0_d_2_18" x="0.791992" y="0.603996" width="257.793" height="121.72" filterUnits="userSpaceOnUse" color-interpolation-filters="sRGB">
<feFlood flood-opacity="0" result="BackgroundImageFix"/>
<feColorMatrix in="SourceAlpha" type="matrix" values="0 0 0 0 0 0 0 0 0 0 0 0 0 0 0 0 0 0 127 0" result="hardAlpha"/>
<feOffset dy="4"/>
<feGaussianBlur stdDeviation="2"/>
<feComposite in2="hardAlpha" operator="out"/>
<feColorMatrix type="matrix" values="0 0 0 0 0 0 0 0 0 0 0 0 0 0 0 0 0 0 0.25 0"/>
<feBlend mode="normal" in2="BackgroundImageFix" result="effect1_dropShadow_2_18"/>
<feBlend mode="normal" in="SourceGraphic" in2="effect1_dropShadow_2_18" result="shape"/>
</filter>
</defs>
</svg>
